<mxfile host="Electron" modified="2024-02-21T13:29:13.734Z" agent="Mozilla/5.0 (Macintosh; Intel Mac OS X 10_15_7) AppleWebKit/537.36 (KHTML, like Gecko) draw.io/23.0.2 Chrome/120.0.6099.109 Electron/28.1.0 Safari/537.36" etag="3_FHjOqMreV8kSwUHQCe" version="23.0.2" type="device">
  <diagram id="C5RBs43oDa-KdzZeNtuy" name="Page-1">
    <mxGraphModel dx="956" dy="2208" grid="1" gridSize="10" guides="1" tooltips="1" connect="1" arrows="1" fold="1" page="1" pageScale="1" pageWidth="827" pageHeight="1169" math="0" shadow="0">
      <root>
        <mxCell id="WIyWlLk6GJQsqaUBKTNV-0" />
        <mxCell id="WIyWlLk6GJQsqaUBKTNV-1" parent="WIyWlLk6GJQsqaUBKTNV-0" />
        <mxCell id="zkfFHV4jXpPFQw0GAbJ--0" value="CarÂ &#xa;{abstract}" style="swimlane;fontStyle=1;align=center;verticalAlign=top;childLayout=stackLayout;horizontal=1;startSize=40;horizontalStack=0;resizeParent=1;resizeLast=0;collapsible=1;marginBottom=0;rounded=0;shadow=0;strokeWidth=1;" parent="WIyWlLk6GJQsqaUBKTNV-1" vertex="1">
          <mxGeometry x="220" y="20" width="160" height="520" as="geometry">
            <mxRectangle x="230" y="140" width="160" height="26" as="alternateBounds" />
          </mxGeometry>
        </mxCell>
        <mxCell id="zkfFHV4jXpPFQw0GAbJ--1" value="- nrDoors : int" style="text;align=left;verticalAlign=top;spacingLeft=4;spacingRight=4;overflow=hidden;rotatable=0;points=[[0,0.5],[1,0.5]];portConstraint=eastwest;fontStyle=0" parent="zkfFHV4jXpPFQw0GAbJ--0" vertex="1">
          <mxGeometry y="40" width="160" height="26" as="geometry" />
        </mxCell>
        <mxCell id="zkfFHV4jXpPFQw0GAbJ--2" value="- enginePower : int" style="text;align=left;verticalAlign=top;spacingLeft=4;spacingRight=4;overflow=hidden;rotatable=0;points=[[0,0.5],[1,0.5]];portConstraint=eastwest;rounded=0;shadow=0;html=0;fontStyle=0" parent="zkfFHV4jXpPFQw0GAbJ--0" vertex="1">
          <mxGeometry y="66" width="160" height="26" as="geometry" />
        </mxCell>
        <mxCell id="zkfFHV4jXpPFQw0GAbJ--3" value="+ currentSpeed : double" style="text;align=left;verticalAlign=top;spacingLeft=4;spacingRight=4;overflow=hidden;rotatable=0;points=[[0,0.5],[1,0.5]];portConstraint=eastwest;rounded=0;shadow=0;html=0;" parent="zkfFHV4jXpPFQw0GAbJ--0" vertex="1">
          <mxGeometry y="92" width="160" height="26" as="geometry" />
        </mxCell>
        <mxCell id="6y_o-Q4EUcebQSO4X-2--4" value="+ color : Color" style="text;align=left;verticalAlign=top;spacingLeft=4;spacingRight=4;overflow=hidden;rotatable=0;points=[[0,0.5],[1,0.5]];portConstraint=eastwest;rounded=0;shadow=0;html=0;" parent="zkfFHV4jXpPFQw0GAbJ--0" vertex="1">
          <mxGeometry y="118" width="160" height="26" as="geometry" />
        </mxCell>
        <mxCell id="6y_o-Q4EUcebQSO4X-2--5" value="+ modelName : String" style="text;align=left;verticalAlign=top;spacingLeft=4;spacingRight=4;overflow=hidden;rotatable=0;points=[[0,0.5],[1,0.5]];portConstraint=eastwest;rounded=0;shadow=0;html=0;fontStyle=0" parent="zkfFHV4jXpPFQw0GAbJ--0" vertex="1">
          <mxGeometry y="144" width="160" height="26" as="geometry" />
        </mxCell>
        <mxCell id="6y_o-Q4EUcebQSO4X-2--6" value="+ point : Point2D" style="text;align=left;verticalAlign=top;spacingLeft=4;spacingRight=4;overflow=hidden;rotatable=0;points=[[0,0.5],[1,0.5]];portConstraint=eastwest;rounded=0;shadow=0;html=0;fontStyle=0" parent="zkfFHV4jXpPFQw0GAbJ--0" vertex="1">
          <mxGeometry y="170" width="160" height="26" as="geometry" />
        </mxCell>
        <mxCell id="6y_o-Q4EUcebQSO4X-2--7" value="+ direction : Point" style="text;align=left;verticalAlign=top;spacingLeft=4;spacingRight=4;overflow=hidden;rotatable=0;points=[[0,0.5],[1,0.5]];portConstraint=eastwest;rounded=0;shadow=0;html=0;fontStyle=0" parent="zkfFHV4jXpPFQw0GAbJ--0" vertex="1">
          <mxGeometry y="196" width="160" height="26" as="geometry" />
        </mxCell>
        <mxCell id="6y_o-Q4EUcebQSO4X-2--10" value="" style="line;html=1;strokeWidth=1;align=left;verticalAlign=middle;spacingTop=-1;spacingLeft=3;spacingRight=3;rotatable=0;labelPosition=right;points=[];portConstraint=eastwest;" parent="zkfFHV4jXpPFQw0GAbJ--0" vertex="1">
          <mxGeometry y="222" width="160" height="8" as="geometry" />
        </mxCell>
        <mxCell id="6y_o-Q4EUcebQSO4X-2--11" value="+ startEngine() : void" style="text;align=left;verticalAlign=top;spacingLeft=4;spacingRight=4;overflow=hidden;rotatable=0;points=[[0,0.5],[1,0.5]];portConstraint=eastwest;rounded=0;shadow=0;html=0;fontStyle=0" parent="zkfFHV4jXpPFQw0GAbJ--0" vertex="1">
          <mxGeometry y="230" width="160" height="26" as="geometry" />
        </mxCell>
        <mxCell id="6y_o-Q4EUcebQSO4X-2--12" value="+ stopEngine() : void" style="text;align=left;verticalAlign=top;spacingLeft=4;spacingRight=4;overflow=hidden;rotatable=0;points=[[0,0.5],[1,0.5]];portConstraint=eastwest;rounded=0;shadow=0;html=0;fontStyle=0" parent="zkfFHV4jXpPFQw0GAbJ--0" vertex="1">
          <mxGeometry y="256" width="160" height="26" as="geometry" />
        </mxCell>
        <mxCell id="6y_o-Q4EUcebQSO4X-2--13" value="+ move() : void" style="text;align=left;verticalAlign=top;spacingLeft=4;spacingRight=4;overflow=hidden;rotatable=0;points=[[0,0.5],[1,0.5]];portConstraint=eastwest;rounded=0;shadow=0;html=0;fontStyle=0" parent="zkfFHV4jXpPFQw0GAbJ--0" vertex="1">
          <mxGeometry y="282" width="160" height="26" as="geometry" />
        </mxCell>
        <mxCell id="6y_o-Q4EUcebQSO4X-2--14" value="+ turnLeft() : void" style="text;align=left;verticalAlign=top;spacingLeft=4;spacingRight=4;overflow=hidden;rotatable=0;points=[[0,0.5],[1,0.5]];portConstraint=eastwest;rounded=0;shadow=0;html=0;fontStyle=0" parent="zkfFHV4jXpPFQw0GAbJ--0" vertex="1">
          <mxGeometry y="308" width="160" height="26" as="geometry" />
        </mxCell>
        <mxCell id="6y_o-Q4EUcebQSO4X-2--15" value="+ turnRight() : void" style="text;align=left;verticalAlign=top;spacingLeft=4;spacingRight=4;overflow=hidden;rotatable=0;points=[[0,0.5],[1,0.5]];portConstraint=eastwest;rounded=0;shadow=0;html=0;fontStyle=0" parent="zkfFHV4jXpPFQw0GAbJ--0" vertex="1">
          <mxGeometry y="334" width="160" height="26" as="geometry" />
        </mxCell>
        <mxCell id="6y_o-Q4EUcebQSO4X-2--16" value="+ speedFactor() : double" style="text;align=left;verticalAlign=top;spacingLeft=4;spacingRight=4;overflow=hidden;rotatable=0;points=[[0,0.5],[1,0.5]];portConstraint=eastwest;rounded=0;shadow=0;html=0;fontStyle=2" parent="zkfFHV4jXpPFQw0GAbJ--0" vertex="1">
          <mxGeometry y="360" width="160" height="26" as="geometry" />
        </mxCell>
        <mxCell id="6y_o-Q4EUcebQSO4X-2--18" value="+ incrementSpeed() : void" style="text;align=left;verticalAlign=top;spacingLeft=4;spacingRight=4;overflow=hidden;rotatable=0;points=[[0,0.5],[1,0.5]];portConstraint=eastwest;rounded=0;shadow=0;html=0;fontStyle=2" parent="zkfFHV4jXpPFQw0GAbJ--0" vertex="1">
          <mxGeometry y="386" width="160" height="26" as="geometry" />
        </mxCell>
        <mxCell id="6y_o-Q4EUcebQSO4X-2--19" value="+ decrementSpeed() : void" style="text;align=left;verticalAlign=top;spacingLeft=4;spacingRight=4;overflow=hidden;rotatable=0;points=[[0,0.5],[1,0.5]];portConstraint=eastwest;rounded=0;shadow=0;html=0;fontStyle=2" parent="zkfFHV4jXpPFQw0GAbJ--0" vertex="1">
          <mxGeometry y="412" width="160" height="26" as="geometry" />
        </mxCell>
        <mxCell id="6y_o-Q4EUcebQSO4X-2--20" value="+ gas() : void" style="text;align=left;verticalAlign=top;spacingLeft=4;spacingRight=4;overflow=hidden;rotatable=0;points=[[0,0.5],[1,0.5]];portConstraint=eastwest;rounded=0;shadow=0;html=0;fontStyle=2" parent="zkfFHV4jXpPFQw0GAbJ--0" vertex="1">
          <mxGeometry y="438" width="160" height="26" as="geometry" />
        </mxCell>
        <mxCell id="6y_o-Q4EUcebQSO4X-2--21" value="+ brake() : void" style="text;align=left;verticalAlign=top;spacingLeft=4;spacingRight=4;overflow=hidden;rotatable=0;points=[[0,0.5],[1,0.5]];portConstraint=eastwest;rounded=0;shadow=0;html=0;fontStyle=2" parent="zkfFHV4jXpPFQw0GAbJ--0" vertex="1">
          <mxGeometry y="464" width="160" height="26" as="geometry" />
        </mxCell>
        <mxCell id="6y_o-Q4EUcebQSO4X-2--22" value="+ setPos() : void" style="text;align=left;verticalAlign=top;spacingLeft=4;spacingRight=4;overflow=hidden;rotatable=0;points=[[0,0.5],[1,0.5]];portConstraint=eastwest;rounded=0;shadow=0;html=0;fontStyle=2" parent="zkfFHV4jXpPFQw0GAbJ--0" vertex="1">
          <mxGeometry y="490" width="160" height="26" as="geometry" />
        </mxCell>
        <mxCell id="zkfFHV4jXpPFQw0GAbJ--6" value="Volvo240" style="swimlane;fontStyle=1;align=center;verticalAlign=top;childLayout=stackLayout;horizontal=1;startSize=26;horizontalStack=0;resizeParent=1;resizeLast=0;collapsible=1;marginBottom=0;rounded=0;shadow=0;strokeWidth=1;" parent="WIyWlLk6GJQsqaUBKTNV-1" vertex="1">
          <mxGeometry x="115" y="690" width="160" height="90" as="geometry">
            <mxRectangle x="130" y="380" width="160" height="26" as="alternateBounds" />
          </mxGeometry>
        </mxCell>
        <mxCell id="zkfFHV4jXpPFQw0GAbJ--7" value="- trimFactor : double" style="text;align=left;verticalAlign=top;spacingLeft=4;spacingRight=4;overflow=hidden;rotatable=0;points=[[0,0.5],[1,0.5]];portConstraint=eastwest;fontStyle=4" parent="zkfFHV4jXpPFQw0GAbJ--6" vertex="1">
          <mxGeometry y="26" width="160" height="26" as="geometry" />
        </mxCell>
        <mxCell id="zkfFHV4jXpPFQw0GAbJ--9" value="" style="line;html=1;strokeWidth=1;align=left;verticalAlign=middle;spacingTop=-1;spacingLeft=3;spacingRight=3;rotatable=0;labelPosition=right;points=[];portConstraint=eastwest;" parent="zkfFHV4jXpPFQw0GAbJ--6" vertex="1">
          <mxGeometry y="52" width="160" height="8" as="geometry" />
        </mxCell>
        <mxCell id="zkfFHV4jXpPFQw0GAbJ--10" value="+ speedFactor() : double" style="text;align=left;verticalAlign=top;spacingLeft=4;spacingRight=4;overflow=hidden;rotatable=0;points=[[0,0.5],[1,0.5]];portConstraint=eastwest;fontStyle=0" parent="zkfFHV4jXpPFQw0GAbJ--6" vertex="1">
          <mxGeometry y="60" width="160" height="26" as="geometry" />
        </mxCell>
        <mxCell id="zkfFHV4jXpPFQw0GAbJ--12" value="" style="endArrow=block;endSize=10;endFill=0;shadow=0;strokeWidth=1;rounded=0;edgeStyle=elbowEdgeStyle;elbow=vertical;" parent="WIyWlLk6GJQsqaUBKTNV-1" source="zkfFHV4jXpPFQw0GAbJ--6" target="zkfFHV4jXpPFQw0GAbJ--0" edge="1">
          <mxGeometry width="160" relative="1" as="geometry">
            <mxPoint x="200" y="203" as="sourcePoint" />
            <mxPoint x="200" y="203" as="targetPoint" />
          </mxGeometry>
        </mxCell>
        <mxCell id="zkfFHV4jXpPFQw0GAbJ--13" value="Saab95" style="swimlane;fontStyle=1;align=center;verticalAlign=top;childLayout=stackLayout;horizontal=1;startSize=26;horizontalStack=0;resizeParent=1;resizeLast=0;collapsible=1;marginBottom=0;rounded=0;shadow=0;strokeWidth=1;" parent="WIyWlLk6GJQsqaUBKTNV-1" vertex="1">
          <mxGeometry x="325" y="690" width="160" height="150" as="geometry">
            <mxRectangle x="340" y="380" width="170" height="26" as="alternateBounds" />
          </mxGeometry>
        </mxCell>
        <mxCell id="zkfFHV4jXpPFQw0GAbJ--14" value="+ turboOn : boolean" style="text;align=left;verticalAlign=top;spacingLeft=4;spacingRight=4;overflow=hidden;rotatable=0;points=[[0,0.5],[1,0.5]];portConstraint=eastwest;" parent="zkfFHV4jXpPFQw0GAbJ--13" vertex="1">
          <mxGeometry y="26" width="160" height="26" as="geometry" />
        </mxCell>
        <mxCell id="zkfFHV4jXpPFQw0GAbJ--15" value="" style="line;html=1;strokeWidth=1;align=left;verticalAlign=middle;spacingTop=-1;spacingLeft=3;spacingRight=3;rotatable=0;labelPosition=right;points=[];portConstraint=eastwest;" parent="zkfFHV4jXpPFQw0GAbJ--13" vertex="1">
          <mxGeometry y="52" width="160" height="8" as="geometry" />
        </mxCell>
        <mxCell id="6y_o-Q4EUcebQSO4X-2--23" value="+ setTurboOn() : void" style="text;align=left;verticalAlign=top;spacingLeft=4;spacingRight=4;overflow=hidden;rotatable=0;points=[[0,0.5],[1,0.5]];portConstraint=eastwest;" parent="zkfFHV4jXpPFQw0GAbJ--13" vertex="1">
          <mxGeometry y="60" width="160" height="26" as="geometry" />
        </mxCell>
        <mxCell id="6y_o-Q4EUcebQSO4X-2--24" value="+ setTurboOff() : void" style="text;align=left;verticalAlign=top;spacingLeft=4;spacingRight=4;overflow=hidden;rotatable=0;points=[[0,0.5],[1,0.5]];portConstraint=eastwest;" parent="zkfFHV4jXpPFQw0GAbJ--13" vertex="1">
          <mxGeometry y="86" width="160" height="26" as="geometry" />
        </mxCell>
        <mxCell id="6y_o-Q4EUcebQSO4X-2--25" value="+ speedFactor() : double" style="text;align=left;verticalAlign=top;spacingLeft=4;spacingRight=4;overflow=hidden;rotatable=0;points=[[0,0.5],[1,0.5]];portConstraint=eastwest;" parent="zkfFHV4jXpPFQw0GAbJ--13" vertex="1">
          <mxGeometry y="112" width="160" height="26" as="geometry" />
        </mxCell>
        <mxCell id="zkfFHV4jXpPFQw0GAbJ--16" value="" style="endArrow=block;endSize=10;endFill=0;shadow=0;strokeWidth=1;rounded=0;edgeStyle=elbowEdgeStyle;elbow=vertical;" parent="WIyWlLk6GJQsqaUBKTNV-1" source="zkfFHV4jXpPFQw0GAbJ--13" target="zkfFHV4jXpPFQw0GAbJ--0" edge="1">
          <mxGeometry width="160" relative="1" as="geometry">
            <mxPoint x="210" y="373" as="sourcePoint" />
            <mxPoint x="310" y="271" as="targetPoint" />
          </mxGeometry>
        </mxCell>
        <mxCell id="zkfFHV4jXpPFQw0GAbJ--17" value="CargoSpace" style="swimlane;fontStyle=1;align=center;verticalAlign=top;childLayout=stackLayout;horizontal=1;startSize=26;horizontalStack=0;resizeParent=1;resizeLast=0;collapsible=1;marginBottom=0;rounded=0;shadow=0;strokeWidth=1;" parent="WIyWlLk6GJQsqaUBKTNV-1" vertex="1">
          <mxGeometry x="590" y="495" width="160" height="90" as="geometry">
            <mxRectangle x="550" y="140" width="160" height="26" as="alternateBounds" />
          </mxGeometry>
        </mxCell>
        <mxCell id="zkfFHV4jXpPFQw0GAbJ--18" value="+ cargo : Stack&lt;Car&gt;" style="text;align=left;verticalAlign=top;spacingLeft=4;spacingRight=4;overflow=hidden;rotatable=0;points=[[0,0.5],[1,0.5]];portConstraint=eastwest;" parent="zkfFHV4jXpPFQw0GAbJ--17" vertex="1">
          <mxGeometry y="26" width="160" height="26" as="geometry" />
        </mxCell>
        <mxCell id="zkfFHV4jXpPFQw0GAbJ--19" value="+ maxsize : int" style="text;align=left;verticalAlign=top;spacingLeft=4;spacingRight=4;overflow=hidden;rotatable=0;points=[[0,0.5],[1,0.5]];portConstraint=eastwest;rounded=0;shadow=0;html=0;" parent="zkfFHV4jXpPFQw0GAbJ--17" vertex="1">
          <mxGeometry y="52" width="160" height="26" as="geometry" />
        </mxCell>
        <mxCell id="zkfFHV4jXpPFQw0GAbJ--23" value="" style="line;html=1;strokeWidth=1;align=left;verticalAlign=middle;spacingTop=-1;spacingLeft=3;spacingRight=3;rotatable=0;labelPosition=right;points=[];portConstraint=eastwest;" parent="zkfFHV4jXpPFQw0GAbJ--17" vertex="1">
          <mxGeometry y="78" width="160" height="8" as="geometry" />
        </mxCell>
        <mxCell id="zkfFHV4jXpPFQw0GAbJ--26" value="" style="endArrow=open;shadow=0;strokeWidth=1;rounded=0;endFill=1;edgeStyle=elbowEdgeStyle;elbow=vertical;exitX=0.75;exitY=0;exitDx=0;exitDy=0;entryX=0.5;entryY=1;entryDx=0;entryDy=0;" parent="WIyWlLk6GJQsqaUBKTNV-1" source="6y_o-Q4EUcebQSO4X-2--42" target="zkfFHV4jXpPFQw0GAbJ--17" edge="1">
          <mxGeometry x="0.5" y="41" relative="1" as="geometry">
            <mxPoint x="680" y="570" as="sourcePoint" />
            <mxPoint x="390" y="192" as="targetPoint" />
            <mxPoint x="-40" y="32" as="offset" />
            <Array as="points">
              <mxPoint x="710" y="650" />
            </Array>
          </mxGeometry>
        </mxCell>
        <mxCell id="6y_o-Q4EUcebQSO4X-2--26" value="Truck&#xa;{abstract}" style="swimlane;fontStyle=1;align=center;verticalAlign=top;childLayout=stackLayout;horizontal=1;startSize=40;horizontalStack=0;resizeParent=1;resizeLast=0;collapsible=1;marginBottom=0;rounded=0;shadow=0;strokeWidth=1;" parent="WIyWlLk6GJQsqaUBKTNV-1" vertex="1">
          <mxGeometry x="520" y="690" width="160" height="190" as="geometry">
            <mxRectangle x="340" y="380" width="170" height="26" as="alternateBounds" />
          </mxGeometry>
        </mxCell>
        <mxCell id="6y_o-Q4EUcebQSO4X-2--27" value="+ angle : int" style="text;align=left;verticalAlign=top;spacingLeft=4;spacingRight=4;overflow=hidden;rotatable=0;points=[[0,0.5],[1,0.5]];portConstraint=eastwest;" parent="6y_o-Q4EUcebQSO4X-2--26" vertex="1">
          <mxGeometry y="40" width="160" height="26" as="geometry" />
        </mxCell>
        <mxCell id="6y_o-Q4EUcebQSO4X-2--28" value="" style="line;html=1;strokeWidth=1;align=left;verticalAlign=middle;spacingTop=-1;spacingLeft=3;spacingRight=3;rotatable=0;labelPosition=right;points=[];portConstraint=eastwest;" parent="6y_o-Q4EUcebQSO4X-2--26" vertex="1">
          <mxGeometry y="66" width="160" height="8" as="geometry" />
        </mxCell>
        <mxCell id="6y_o-Q4EUcebQSO4X-2--29" value="+ startEngine() : void" style="text;align=left;verticalAlign=top;spacingLeft=4;spacingRight=4;overflow=hidden;rotatable=0;points=[[0,0.5],[1,0.5]];portConstraint=eastwest;" parent="6y_o-Q4EUcebQSO4X-2--26" vertex="1">
          <mxGeometry y="74" width="160" height="26" as="geometry" />
        </mxCell>
        <mxCell id="6y_o-Q4EUcebQSO4X-2--30" value="+ changeAngle() : void" style="text;align=left;verticalAlign=top;spacingLeft=4;spacingRight=4;overflow=hidden;rotatable=0;points=[[0,0.5],[1,0.5]];portConstraint=eastwest;fontStyle=2" parent="6y_o-Q4EUcebQSO4X-2--26" vertex="1">
          <mxGeometry y="100" width="160" height="26" as="geometry" />
        </mxCell>
        <mxCell id="6y_o-Q4EUcebQSO4X-2--31" value="+ speedFactor() : double" style="text;align=left;verticalAlign=top;spacingLeft=4;spacingRight=4;overflow=hidden;rotatable=0;points=[[0,0.5],[1,0.5]];portConstraint=eastwest;" parent="6y_o-Q4EUcebQSO4X-2--26" vertex="1">
          <mxGeometry y="126" width="160" height="26" as="geometry" />
        </mxCell>
        <mxCell id="6y_o-Q4EUcebQSO4X-2--33" value="+ incrementSpeed() : void" style="text;align=left;verticalAlign=top;spacingLeft=4;spacingRight=4;overflow=hidden;rotatable=0;points=[[0,0.5],[1,0.5]];portConstraint=eastwest;" parent="6y_o-Q4EUcebQSO4X-2--26" vertex="1">
          <mxGeometry y="152" width="160" height="26" as="geometry" />
        </mxCell>
        <mxCell id="6y_o-Q4EUcebQSO4X-2--32" value="" style="endArrow=block;endSize=10;endFill=0;shadow=0;strokeWidth=1;rounded=0;edgeStyle=elbowEdgeStyle;elbow=vertical;exitX=0.5;exitY=0;exitDx=0;exitDy=0;" parent="WIyWlLk6GJQsqaUBKTNV-1" source="6y_o-Q4EUcebQSO4X-2--26" edge="1">
          <mxGeometry width="160" relative="1" as="geometry">
            <mxPoint x="415" y="700" as="sourcePoint" />
            <mxPoint x="300" y="540" as="targetPoint" />
          </mxGeometry>
        </mxCell>
        <mxCell id="6y_o-Q4EUcebQSO4X-2--34" value="Scania" style="swimlane;fontStyle=1;align=center;verticalAlign=top;childLayout=stackLayout;horizontal=1;startSize=26;horizontalStack=0;resizeParent=1;resizeLast=0;collapsible=1;marginBottom=0;rounded=0;shadow=0;strokeWidth=1;" parent="WIyWlLk6GJQsqaUBKTNV-1" vertex="1">
          <mxGeometry x="470" y="975.58" width="160" height="60" as="geometry">
            <mxRectangle x="340" y="380" width="170" height="26" as="alternateBounds" />
          </mxGeometry>
        </mxCell>
        <mxCell id="6y_o-Q4EUcebQSO4X-2--36" value="" style="line;html=1;strokeWidth=1;align=left;verticalAlign=middle;spacingTop=-1;spacingLeft=3;spacingRight=3;rotatable=0;labelPosition=right;points=[];portConstraint=eastwest;" parent="6y_o-Q4EUcebQSO4X-2--34" vertex="1">
          <mxGeometry y="26" width="160" height="8" as="geometry" />
        </mxCell>
        <mxCell id="6y_o-Q4EUcebQSO4X-2--38" value="+ changeAngle() : void" style="text;align=left;verticalAlign=top;spacingLeft=4;spacingRight=4;overflow=hidden;rotatable=0;points=[[0,0.5],[1,0.5]];portConstraint=eastwest;fontStyle=2" parent="6y_o-Q4EUcebQSO4X-2--34" vertex="1">
          <mxGeometry y="34" width="160" height="26" as="geometry" />
        </mxCell>
        <mxCell id="6y_o-Q4EUcebQSO4X-2--42" value="Transport" style="swimlane;fontStyle=1;align=center;verticalAlign=top;childLayout=stackLayout;horizontal=1;startSize=26;horizontalStack=0;resizeParent=1;resizeLast=0;collapsible=1;marginBottom=0;rounded=0;shadow=0;strokeWidth=1;" parent="WIyWlLk6GJQsqaUBKTNV-1" vertex="1">
          <mxGeometry x="640" y="945.58" width="160" height="164" as="geometry">
            <mxRectangle x="340" y="380" width="170" height="26" as="alternateBounds" />
          </mxGeometry>
        </mxCell>
        <mxCell id="6y_o-Q4EUcebQSO4X-2--44" value="- cs : CargoSpace" style="text;align=left;verticalAlign=top;spacingLeft=4;spacingRight=4;overflow=hidden;rotatable=0;points=[[0,0.5],[1,0.5]];portConstraint=eastwest;fontStyle=2" parent="6y_o-Q4EUcebQSO4X-2--42" vertex="1">
          <mxGeometry y="26" width="160" height="26" as="geometry" />
        </mxCell>
        <mxCell id="6y_o-Q4EUcebQSO4X-2--46" value="- posHelp : positionHelper" style="text;align=left;verticalAlign=top;spacingLeft=4;spacingRight=4;overflow=hidden;rotatable=0;points=[[0,0.5],[1,0.5]];portConstraint=eastwest;fontStyle=2" parent="6y_o-Q4EUcebQSO4X-2--42" vertex="1">
          <mxGeometry y="52" width="160" height="26" as="geometry" />
        </mxCell>
        <mxCell id="6y_o-Q4EUcebQSO4X-2--43" value="" style="line;html=1;strokeWidth=1;align=left;verticalAlign=middle;spacingTop=-1;spacingLeft=3;spacingRight=3;rotatable=0;labelPosition=right;points=[];portConstraint=eastwest;" parent="6y_o-Q4EUcebQSO4X-2--42" vertex="1">
          <mxGeometry y="78" width="160" height="8" as="geometry" />
        </mxCell>
        <mxCell id="6y_o-Q4EUcebQSO4X-2--47" value="+ changeAngle() : void" style="text;align=left;verticalAlign=top;spacingLeft=4;spacingRight=4;overflow=hidden;rotatable=0;points=[[0,0.5],[1,0.5]];portConstraint=eastwest;fontStyle=2" parent="6y_o-Q4EUcebQSO4X-2--42" vertex="1">
          <mxGeometry y="86" width="160" height="26" as="geometry" />
        </mxCell>
        <mxCell id="6y_o-Q4EUcebQSO4X-2--48" value="+ loadCargo() : void" style="text;align=left;verticalAlign=top;spacingLeft=4;spacingRight=4;overflow=hidden;rotatable=0;points=[[0,0.5],[1,0.5]];portConstraint=eastwest;fontStyle=2" parent="6y_o-Q4EUcebQSO4X-2--42" vertex="1">
          <mxGeometry y="112" width="160" height="26" as="geometry" />
        </mxCell>
        <mxCell id="6y_o-Q4EUcebQSO4X-2--49" value="+ offLoadCargo() : Car" style="text;align=left;verticalAlign=top;spacingLeft=4;spacingRight=4;overflow=hidden;rotatable=0;points=[[0,0.5],[1,0.5]];portConstraint=eastwest;fontStyle=2" parent="6y_o-Q4EUcebQSO4X-2--42" vertex="1">
          <mxGeometry y="138" width="160" height="26" as="geometry" />
        </mxCell>
        <mxCell id="6y_o-Q4EUcebQSO4X-2--50" value="Workshop" style="swimlane;fontStyle=1;align=center;verticalAlign=top;childLayout=stackLayout;horizontal=1;startSize=26;horizontalStack=0;resizeParent=1;resizeLast=0;collapsible=1;marginBottom=0;rounded=0;shadow=0;strokeWidth=1;" parent="WIyWlLk6GJQsqaUBKTNV-1" vertex="1">
          <mxGeometry x="840" y="690" width="160" height="190" as="geometry">
            <mxRectangle x="340" y="380" width="170" height="26" as="alternateBounds" />
          </mxGeometry>
        </mxCell>
        <mxCell id="6y_o-Q4EUcebQSO4X-2--51" value="- cs : CargoSpace" style="text;align=left;verticalAlign=top;spacingLeft=4;spacingRight=4;overflow=hidden;rotatable=0;points=[[0,0.5],[1,0.5]];portConstraint=eastwest;fontStyle=2" parent="6y_o-Q4EUcebQSO4X-2--50" vertex="1">
          <mxGeometry y="26" width="160" height="26" as="geometry" />
        </mxCell>
        <mxCell id="6y_o-Q4EUcebQSO4X-2--52" value="- posHelp : positionHelper" style="text;align=left;verticalAlign=top;spacingLeft=4;spacingRight=4;overflow=hidden;rotatable=0;points=[[0,0.5],[1,0.5]];portConstraint=eastwest;fontStyle=2" parent="6y_o-Q4EUcebQSO4X-2--50" vertex="1">
          <mxGeometry y="52" width="160" height="26" as="geometry" />
        </mxCell>
        <mxCell id="6y_o-Q4EUcebQSO4X-2--59" value="- point : Point2D" style="text;align=left;verticalAlign=top;spacingLeft=4;spacingRight=4;overflow=hidden;rotatable=0;points=[[0,0.5],[1,0.5]];portConstraint=eastwest;fontStyle=2" parent="6y_o-Q4EUcebQSO4X-2--50" vertex="1">
          <mxGeometry y="78" width="160" height="26" as="geometry" />
        </mxCell>
        <mxCell id="6y_o-Q4EUcebQSO4X-2--53" value="" style="line;html=1;strokeWidth=1;align=left;verticalAlign=middle;spacingTop=-1;spacingLeft=3;spacingRight=3;rotatable=0;labelPosition=right;points=[];portConstraint=eastwest;" parent="6y_o-Q4EUcebQSO4X-2--50" vertex="1">
          <mxGeometry y="104" width="160" height="8" as="geometry" />
        </mxCell>
        <mxCell id="6y_o-Q4EUcebQSO4X-2--55" value="+ loadCargo() : void" style="text;align=left;verticalAlign=top;spacingLeft=4;spacingRight=4;overflow=hidden;rotatable=0;points=[[0,0.5],[1,0.5]];portConstraint=eastwest;fontStyle=2" parent="6y_o-Q4EUcebQSO4X-2--50" vertex="1">
          <mxGeometry y="112" width="160" height="26" as="geometry" />
        </mxCell>
        <mxCell id="6y_o-Q4EUcebQSO4X-2--56" value="+ offLoadCargo() : Car" style="text;align=left;verticalAlign=top;spacingLeft=4;spacingRight=4;overflow=hidden;rotatable=0;points=[[0,0.5],[1,0.5]];portConstraint=eastwest;fontStyle=2" parent="6y_o-Q4EUcebQSO4X-2--50" vertex="1">
          <mxGeometry y="138" width="160" height="26" as="geometry" />
        </mxCell>
        <mxCell id="6y_o-Q4EUcebQSO4X-2--54" value="+ changeAngle() : void" style="text;align=left;verticalAlign=top;spacingLeft=4;spacingRight=4;overflow=hidden;rotatable=0;points=[[0,0.5],[1,0.5]];portConstraint=eastwest;fontStyle=2" parent="6y_o-Q4EUcebQSO4X-2--50" vertex="1">
          <mxGeometry y="164" width="160" height="26" as="geometry" />
        </mxCell>
        <mxCell id="6y_o-Q4EUcebQSO4X-2--57" value="" style="endArrow=open;shadow=0;strokeWidth=1;rounded=0;endFill=1;edgeStyle=elbowEdgeStyle;elbow=vertical;exitX=0.5;exitY=0;exitDx=0;exitDy=0;entryX=0.5;entryY=1;entryDx=0;entryDy=0;" parent="WIyWlLk6GJQsqaUBKTNV-1" source="6y_o-Q4EUcebQSO4X-2--50" target="zkfFHV4jXpPFQw0GAbJ--17" edge="1">
          <mxGeometry x="0.5" y="41" relative="1" as="geometry">
            <mxPoint x="850" y="570" as="sourcePoint" />
            <mxPoint x="860" y="500" as="targetPoint" />
            <mxPoint x="-40" y="32" as="offset" />
            <Array as="points">
              <mxPoint x="800" y="650" />
            </Array>
          </mxGeometry>
        </mxCell>
        <mxCell id="6y_o-Q4EUcebQSO4X-2--60" value="PositionHelper" style="swimlane;fontStyle=1;align=center;verticalAlign=top;childLayout=stackLayout;horizontal=1;startSize=26;horizontalStack=0;resizeParent=1;resizeLast=0;collapsible=1;marginBottom=0;rounded=0;shadow=0;strokeWidth=1;" parent="WIyWlLk6GJQsqaUBKTNV-1" vertex="1">
          <mxGeometry x="780" y="495" width="170" height="90" as="geometry">
            <mxRectangle x="550" y="140" width="160" height="26" as="alternateBounds" />
          </mxGeometry>
        </mxCell>
        <mxCell id="6y_o-Q4EUcebQSO4X-2--63" value="" style="line;html=1;strokeWidth=1;align=left;verticalAlign=middle;spacingTop=-1;spacingLeft=3;spacingRight=3;rotatable=0;labelPosition=right;points=[];portConstraint=eastwest;" parent="6y_o-Q4EUcebQSO4X-2--60" vertex="1">
          <mxGeometry y="26" width="170" height="8" as="geometry" />
        </mxCell>
        <mxCell id="6y_o-Q4EUcebQSO4X-2--61" value="+ avstÃ¥ndsFormeln() : double" style="text;align=left;verticalAlign=top;spacingLeft=4;spacingRight=4;overflow=hidden;rotatable=0;points=[[0,0.5],[1,0.5]];portConstraint=eastwest;" parent="6y_o-Q4EUcebQSO4X-2--60" vertex="1">
          <mxGeometry y="34" width="170" height="26" as="geometry" />
        </mxCell>
        <mxCell id="6y_o-Q4EUcebQSO4X-2--64" value="" style="endArrow=open;shadow=0;strokeWidth=1;rounded=0;endFill=1;edgeStyle=elbowEdgeStyle;elbow=vertical;entryX=0.5;entryY=1;entryDx=0;entryDy=0;exitX=0.5;exitY=0;exitDx=0;exitDy=0;" parent="WIyWlLk6GJQsqaUBKTNV-1" source="6y_o-Q4EUcebQSO4X-2--50" target="6y_o-Q4EUcebQSO4X-2--60" edge="1">
          <mxGeometry x="0.5" y="41" relative="1" as="geometry">
            <mxPoint x="1020" y="690" as="sourcePoint" />
            <mxPoint x="1030" y="500" as="targetPoint" />
            <mxPoint x="-40" y="32" as="offset" />
            <Array as="points">
              <mxPoint x="900" y="650" />
            </Array>
          </mxGeometry>
        </mxCell>
        <mxCell id="6y_o-Q4EUcebQSO4X-2--65" value="" style="endArrow=open;shadow=0;strokeWidth=1;rounded=0;endFill=1;edgeStyle=elbowEdgeStyle;elbow=vertical;exitX=0.75;exitY=0;exitDx=0;exitDy=0;entryX=0.5;entryY=1;entryDx=0;entryDy=0;" parent="WIyWlLk6GJQsqaUBKTNV-1" source="6y_o-Q4EUcebQSO4X-2--42" target="6y_o-Q4EUcebQSO4X-2--60" edge="1">
          <mxGeometry x="0.5" y="41" relative="1" as="geometry">
            <mxPoint x="1020" y="690" as="sourcePoint" />
            <mxPoint x="1030" y="570" as="targetPoint" />
            <mxPoint x="-40" y="32" as="offset" />
            <Array as="points">
              <mxPoint x="900" y="650" />
            </Array>
          </mxGeometry>
        </mxCell>
        <mxCell id="6y_o-Q4EUcebQSO4X-2--66" value="&lt;&lt;Loading&gt;&gt;" style="swimlane;fontStyle=1;align=center;verticalAlign=top;childLayout=stackLayout;horizontal=1;startSize=26;horizontalStack=0;resizeParent=1;resizeLast=0;collapsible=1;marginBottom=0;rounded=0;shadow=0;strokeWidth=1;" parent="WIyWlLk6GJQsqaUBKTNV-1" vertex="1">
          <mxGeometry x="835" y="945.58" width="170" height="112" as="geometry">
            <mxRectangle x="550" y="140" width="160" height="26" as="alternateBounds" />
          </mxGeometry>
        </mxCell>
        <mxCell id="6y_o-Q4EUcebQSO4X-2--67" value="" style="line;html=1;strokeWidth=1;align=left;verticalAlign=middle;spacingTop=-1;spacingLeft=3;spacingRight=3;rotatable=0;labelPosition=right;points=[];portConstraint=eastwest;" parent="6y_o-Q4EUcebQSO4X-2--66" vertex="1">
          <mxGeometry y="26" width="170" height="8" as="geometry" />
        </mxCell>
        <mxCell id="6y_o-Q4EUcebQSO4X-2--68" value="~ loadCargo() : void" style="text;align=left;verticalAlign=top;spacingLeft=4;spacingRight=4;overflow=hidden;rotatable=0;points=[[0,0.5],[1,0.5]];portConstraint=eastwest;" parent="6y_o-Q4EUcebQSO4X-2--66" vertex="1">
          <mxGeometry y="34" width="170" height="26" as="geometry" />
        </mxCell>
        <mxCell id="6y_o-Q4EUcebQSO4X-2--69" value="+ offLoadCargo() : Car" style="text;align=left;verticalAlign=top;spacingLeft=4;spacingRight=4;overflow=hidden;rotatable=0;points=[[0,0.5],[1,0.5]];portConstraint=eastwest;" parent="6y_o-Q4EUcebQSO4X-2--66" vertex="1">
          <mxGeometry y="60" width="170" height="26" as="geometry" />
        </mxCell>
        <mxCell id="6y_o-Q4EUcebQSO4X-2--70" value="+ getPoint() : Point2D" style="text;align=left;verticalAlign=top;spacingLeft=4;spacingRight=4;overflow=hidden;rotatable=0;points=[[0,0.5],[1,0.5]];portConstraint=eastwest;" parent="6y_o-Q4EUcebQSO4X-2--66" vertex="1">
          <mxGeometry y="86" width="170" height="26" as="geometry" />
        </mxCell>
        <mxCell id="6y_o-Q4EUcebQSO4X-2--71" value="" style="endArrow=block;dashed=1;endFill=0;endSize=12;html=1;rounded=0;exitX=0.5;exitY=0;exitDx=0;exitDy=0;" parent="WIyWlLk6GJQsqaUBKTNV-1" source="6y_o-Q4EUcebQSO4X-2--66" target="6y_o-Q4EUcebQSO4X-2--54" edge="1">
          <mxGeometry width="160" relative="1" as="geometry">
            <mxPoint x="830" y="860" as="sourcePoint" />
            <mxPoint x="990" y="860" as="targetPoint" />
            <Array as="points" />
          </mxGeometry>
        </mxCell>
        <mxCell id="6y_o-Q4EUcebQSO4X-2--72" value="" style="endArrow=block;dashed=1;endFill=0;endSize=12;html=1;rounded=0;entryX=1;entryY=0.5;entryDx=0;entryDy=0;exitX=0;exitY=0.5;exitDx=0;exitDy=0;" parent="WIyWlLk6GJQsqaUBKTNV-1" source="6y_o-Q4EUcebQSO4X-2--68" target="6y_o-Q4EUcebQSO4X-2--44" edge="1">
          <mxGeometry width="160" relative="1" as="geometry">
            <mxPoint x="840" y="1026" as="sourcePoint" />
            <mxPoint x="810" y="870" as="targetPoint" />
          </mxGeometry>
        </mxCell>
        <mxCell id="6y_o-Q4EUcebQSO4X-2--73" value="&lt;&lt;Movable&gt;&gt;" style="swimlane;fontStyle=1;align=center;verticalAlign=top;childLayout=stackLayout;horizontal=1;startSize=26;horizontalStack=0;resizeParent=1;resizeLast=0;collapsible=1;marginBottom=0;rounded=0;shadow=0;strokeWidth=1;" parent="WIyWlLk6GJQsqaUBKTNV-1" vertex="1">
          <mxGeometry x="452" y="180" width="170" height="112" as="geometry">
            <mxRectangle x="550" y="140" width="160" height="26" as="alternateBounds" />
          </mxGeometry>
        </mxCell>
        <mxCell id="6y_o-Q4EUcebQSO4X-2--74" value="" style="line;html=1;strokeWidth=1;align=left;verticalAlign=middle;spacingTop=-1;spacingLeft=3;spacingRight=3;rotatable=0;labelPosition=right;points=[];portConstraint=eastwest;" parent="6y_o-Q4EUcebQSO4X-2--73" vertex="1">
          <mxGeometry y="26" width="170" height="8" as="geometry" />
        </mxCell>
        <mxCell id="6y_o-Q4EUcebQSO4X-2--75" value="~ move() : void" style="text;align=left;verticalAlign=top;spacingLeft=4;spacingRight=4;overflow=hidden;rotatable=0;points=[[0,0.5],[1,0.5]];portConstraint=eastwest;" parent="6y_o-Q4EUcebQSO4X-2--73" vertex="1">
          <mxGeometry y="34" width="170" height="26" as="geometry" />
        </mxCell>
        <mxCell id="6y_o-Q4EUcebQSO4X-2--76" value="~ turnLeft() : void" style="text;align=left;verticalAlign=top;spacingLeft=4;spacingRight=4;overflow=hidden;rotatable=0;points=[[0,0.5],[1,0.5]];portConstraint=eastwest;" parent="6y_o-Q4EUcebQSO4X-2--73" vertex="1">
          <mxGeometry y="60" width="170" height="26" as="geometry" />
        </mxCell>
        <mxCell id="6y_o-Q4EUcebQSO4X-2--77" value="~ turnRight() : void" style="text;align=left;verticalAlign=top;spacingLeft=4;spacingRight=4;overflow=hidden;rotatable=0;points=[[0,0.5],[1,0.5]];portConstraint=eastwest;" parent="6y_o-Q4EUcebQSO4X-2--73" vertex="1">
          <mxGeometry y="86" width="170" height="26" as="geometry" />
        </mxCell>
        <mxCell id="6y_o-Q4EUcebQSO4X-2--78" value="" style="endArrow=block;dashed=1;endFill=0;endSize=12;html=1;rounded=0;exitX=0;exitY=0.5;exitDx=0;exitDy=0;entryX=1;entryY=0.5;entryDx=0;entryDy=0;" parent="WIyWlLk6GJQsqaUBKTNV-1" source="6y_o-Q4EUcebQSO4X-2--75" target="6y_o-Q4EUcebQSO4X-2--7" edge="1">
          <mxGeometry width="160" relative="1" as="geometry">
            <mxPoint x="547" y="196" as="sourcePoint" />
            <mxPoint x="450" y="120" as="targetPoint" />
          </mxGeometry>
        </mxCell>
        <mxCell id="6y_o-Q4EUcebQSO4X-2--79" value="CarController" style="swimlane;fontStyle=1;align=center;verticalAlign=top;childLayout=stackLayout;horizontal=1;startSize=30;horizontalStack=0;resizeParent=1;resizeLast=0;collapsible=1;marginBottom=0;rounded=0;shadow=0;strokeWidth=1;" parent="WIyWlLk6GJQsqaUBKTNV-1" vertex="1">
          <mxGeometry x="1292" y="20" width="160" height="410" as="geometry">
            <mxRectangle x="230" y="140" width="160" height="26" as="alternateBounds" />
          </mxGeometry>
        </mxCell>
        <mxCell id="6y_o-Q4EUcebQSO4X-2--80" value="- delay : int" style="text;align=left;verticalAlign=top;spacingLeft=4;spacingRight=4;overflow=hidden;rotatable=0;points=[[0,0.5],[1,0.5]];portConstraint=eastwest;fontStyle=0" parent="6y_o-Q4EUcebQSO4X-2--79" vertex="1">
          <mxGeometry y="30" width="160" height="26" as="geometry" />
        </mxCell>
        <mxCell id="6y_o-Q4EUcebQSO4X-2--81" value="- IMAGEWIDTH : int" style="text;align=left;verticalAlign=top;spacingLeft=4;spacingRight=4;overflow=hidden;rotatable=0;points=[[0,0.5],[1,0.5]];portConstraint=eastwest;rounded=0;shadow=0;html=0;fontStyle=0" parent="6y_o-Q4EUcebQSO4X-2--79" vertex="1">
          <mxGeometry y="56" width="160" height="26" as="geometry" />
        </mxCell>
        <mxCell id="6y_o-Q4EUcebQSO4X-2--82" value="- timer : Timer" style="text;align=left;verticalAlign=top;spacingLeft=4;spacingRight=4;overflow=hidden;rotatable=0;points=[[0,0.5],[1,0.5]];portConstraint=eastwest;rounded=0;shadow=0;html=0;" parent="6y_o-Q4EUcebQSO4X-2--79" vertex="1">
          <mxGeometry y="82" width="160" height="26" as="geometry" />
        </mxCell>
        <mxCell id="6y_o-Q4EUcebQSO4X-2--83" value="~ frame : CarView" style="text;align=left;verticalAlign=top;spacingLeft=4;spacingRight=4;overflow=hidden;rotatable=0;points=[[0,0.5],[1,0.5]];portConstraint=eastwest;rounded=0;shadow=0;html=0;" parent="6y_o-Q4EUcebQSO4X-2--79" vertex="1">
          <mxGeometry y="108" width="160" height="26" as="geometry" />
        </mxCell>
        <mxCell id="6y_o-Q4EUcebQSO4X-2--84" value="~ cars : ArrayList&lt;Car&gt;" style="text;align=left;verticalAlign=top;spacingLeft=4;spacingRight=4;overflow=hidden;rotatable=0;points=[[0,0.5],[1,0.5]];portConstraint=eastwest;rounded=0;shadow=0;html=0;fontStyle=0" parent="6y_o-Q4EUcebQSO4X-2--79" vertex="1">
          <mxGeometry y="134" width="160" height="26" as="geometry" />
        </mxCell>
        <mxCell id="6y_o-Q4EUcebQSO4X-2--87" value="" style="line;html=1;strokeWidth=1;align=left;verticalAlign=middle;spacingTop=-1;spacingLeft=3;spacingRight=3;rotatable=0;labelPosition=right;points=[];portConstraint=eastwest;" parent="6y_o-Q4EUcebQSO4X-2--79" vertex="1">
          <mxGeometry y="160" width="160" height="8" as="geometry" />
        </mxCell>
        <mxCell id="6y_o-Q4EUcebQSO4X-2--88" value="+ actionPerformed() : void" style="text;align=left;verticalAlign=top;spacingLeft=4;spacingRight=4;overflow=hidden;rotatable=0;points=[[0,0.5],[1,0.5]];portConstraint=eastwest;rounded=0;shadow=0;html=0;fontStyle=0" parent="6y_o-Q4EUcebQSO4X-2--79" vertex="1">
          <mxGeometry y="168" width="160" height="26" as="geometry" />
        </mxCell>
        <mxCell id="6y_o-Q4EUcebQSO4X-2--89" value="~ gas() : void" style="text;align=left;verticalAlign=top;spacingLeft=4;spacingRight=4;overflow=hidden;rotatable=0;points=[[0,0.5],[1,0.5]];portConstraint=eastwest;rounded=0;shadow=0;html=0;fontStyle=0" parent="6y_o-Q4EUcebQSO4X-2--79" vertex="1">
          <mxGeometry y="194" width="160" height="26" as="geometry" />
        </mxCell>
        <mxCell id="6y_o-Q4EUcebQSO4X-2--90" value="~ brake() : void" style="text;align=left;verticalAlign=top;spacingLeft=4;spacingRight=4;overflow=hidden;rotatable=0;points=[[0,0.5],[1,0.5]];portConstraint=eastwest;rounded=0;shadow=0;html=0;fontStyle=0" parent="6y_o-Q4EUcebQSO4X-2--79" vertex="1">
          <mxGeometry y="220" width="160" height="26" as="geometry" />
        </mxCell>
        <mxCell id="6y_o-Q4EUcebQSO4X-2--91" value="~ stop() : void" style="text;align=left;verticalAlign=top;spacingLeft=4;spacingRight=4;overflow=hidden;rotatable=0;points=[[0,0.5],[1,0.5]];portConstraint=eastwest;rounded=0;shadow=0;html=0;fontStyle=0" parent="6y_o-Q4EUcebQSO4X-2--79" vertex="1">
          <mxGeometry y="246" width="160" height="26" as="geometry" />
        </mxCell>
        <mxCell id="6y_o-Q4EUcebQSO4X-2--101" value="~ start() : void" style="text;align=left;verticalAlign=top;spacingLeft=4;spacingRight=4;overflow=hidden;rotatable=0;points=[[0,0.5],[1,0.5]];portConstraint=eastwest;rounded=0;shadow=0;html=0;fontStyle=0" parent="6y_o-Q4EUcebQSO4X-2--79" vertex="1">
          <mxGeometry y="272" width="160" height="26" as="geometry" />
        </mxCell>
        <mxCell id="6y_o-Q4EUcebQSO4X-2--102" value="~ turboOn() : void" style="text;align=left;verticalAlign=top;spacingLeft=4;spacingRight=4;overflow=hidden;rotatable=0;points=[[0,0.5],[1,0.5]];portConstraint=eastwest;rounded=0;shadow=0;html=0;fontStyle=0" parent="6y_o-Q4EUcebQSO4X-2--79" vertex="1">
          <mxGeometry y="298" width="160" height="26" as="geometry" />
        </mxCell>
        <mxCell id="6y_o-Q4EUcebQSO4X-2--103" value="~ turboOff() : void" style="text;align=left;verticalAlign=top;spacingLeft=4;spacingRight=4;overflow=hidden;rotatable=0;points=[[0,0.5],[1,0.5]];portConstraint=eastwest;rounded=0;shadow=0;html=0;fontStyle=0" parent="6y_o-Q4EUcebQSO4X-2--79" vertex="1">
          <mxGeometry y="324" width="160" height="26" as="geometry" />
        </mxCell>
        <mxCell id="6y_o-Q4EUcebQSO4X-2--104" value="~ liftBed() : void" style="text;align=left;verticalAlign=top;spacingLeft=4;spacingRight=4;overflow=hidden;rotatable=0;points=[[0,0.5],[1,0.5]];portConstraint=eastwest;rounded=0;shadow=0;html=0;fontStyle=0" parent="6y_o-Q4EUcebQSO4X-2--79" vertex="1">
          <mxGeometry y="350" width="160" height="26" as="geometry" />
        </mxCell>
        <mxCell id="6y_o-Q4EUcebQSO4X-2--105" value="~ lowerBed() : void" style="text;align=left;verticalAlign=top;spacingLeft=4;spacingRight=4;overflow=hidden;rotatable=0;points=[[0,0.5],[1,0.5]];portConstraint=eastwest;rounded=0;shadow=0;html=0;fontStyle=0" parent="6y_o-Q4EUcebQSO4X-2--79" vertex="1">
          <mxGeometry y="376" width="160" height="26" as="geometry" />
        </mxCell>
        <mxCell id="6y_o-Q4EUcebQSO4X-2--99" value="" style="endArrow=block;endSize=10;endFill=0;shadow=0;strokeWidth=1;rounded=0;edgeStyle=elbowEdgeStyle;elbow=vertical;exitX=0.5;exitY=0;exitDx=0;exitDy=0;entryX=0.5;entryY=1;entryDx=0;entryDy=0;" parent="WIyWlLk6GJQsqaUBKTNV-1" source="6y_o-Q4EUcebQSO4X-2--42" target="6y_o-Q4EUcebQSO4X-2--26" edge="1">
          <mxGeometry width="160" relative="1" as="geometry">
            <mxPoint x="560" y="985.58" as="sourcePoint" />
            <mxPoint x="601.9200000000001" y="899.996" as="targetPoint" />
            <Array as="points">
              <mxPoint x="660" y="912" />
            </Array>
          </mxGeometry>
        </mxCell>
        <mxCell id="6y_o-Q4EUcebQSO4X-2--100" value="" style="endArrow=block;endSize=10;endFill=0;shadow=0;strokeWidth=1;rounded=0;edgeStyle=elbowEdgeStyle;elbow=vertical;exitX=0.5;exitY=0;exitDx=0;exitDy=0;entryX=0.5;entryY=1;entryDx=0;entryDy=0;" parent="WIyWlLk6GJQsqaUBKTNV-1" source="6y_o-Q4EUcebQSO4X-2--34" target="6y_o-Q4EUcebQSO4X-2--26" edge="1">
          <mxGeometry width="160" relative="1" as="geometry">
            <mxPoint x="730" y="955.58" as="sourcePoint" />
            <mxPoint x="601.9200000000001" y="899.996" as="targetPoint" />
            <Array as="points">
              <mxPoint x="580" y="910" />
            </Array>
          </mxGeometry>
        </mxCell>
        <mxCell id="6y_o-Q4EUcebQSO4X-2--106" value="TimerListener" style="swimlane;fontStyle=1;align=center;verticalAlign=top;childLayout=stackLayout;horizontal=1;startSize=26;horizontalStack=0;resizeParent=1;resizeLast=0;collapsible=1;marginBottom=0;rounded=0;shadow=0;strokeWidth=1;" parent="WIyWlLk6GJQsqaUBKTNV-1" vertex="1">
          <mxGeometry x="1062" y="120" width="170" height="70" as="geometry">
            <mxRectangle x="550" y="140" width="160" height="26" as="alternateBounds" />
          </mxGeometry>
        </mxCell>
        <mxCell id="6y_o-Q4EUcebQSO4X-2--107" value="" style="line;html=1;strokeWidth=1;align=left;verticalAlign=middle;spacingTop=-1;spacingLeft=3;spacingRight=3;rotatable=0;labelPosition=right;points=[];portConstraint=eastwest;" parent="6y_o-Q4EUcebQSO4X-2--106" vertex="1">
          <mxGeometry y="26" width="170" height="8" as="geometry" />
        </mxCell>
        <mxCell id="6y_o-Q4EUcebQSO4X-2--108" value="+ actionPerformed() : void" style="text;align=left;verticalAlign=top;spacingLeft=4;spacingRight=4;overflow=hidden;rotatable=0;points=[[0,0.5],[1,0.5]];portConstraint=eastwest;" parent="6y_o-Q4EUcebQSO4X-2--106" vertex="1">
          <mxGeometry y="34" width="170" height="26" as="geometry" />
        </mxCell>
        <mxCell id="6y_o-Q4EUcebQSO4X-2--109" value="" style="endArrow=open;startArrow=circlePlus;endFill=0;startFill=0;endSize=8;html=1;rounded=0;entryX=1;entryY=0.25;entryDx=0;entryDy=0;exitX=0;exitY=0.5;exitDx=0;exitDy=0;" parent="WIyWlLk6GJQsqaUBKTNV-1" source="6y_o-Q4EUcebQSO4X-2--83" target="6y_o-Q4EUcebQSO4X-2--106" edge="1">
          <mxGeometry width="160" relative="1" as="geometry">
            <mxPoint x="1312" y="450" as="sourcePoint" />
            <mxPoint x="1292" y="450" as="targetPoint" />
          </mxGeometry>
        </mxCell>
        <mxCell id="6y_o-Q4EUcebQSO4X-2--113" value="Â«interfaceÂ»&lt;br&gt;&lt;b&gt;ActionListener&lt;/b&gt;" style="html=1;whiteSpace=wrap;" parent="WIyWlLk6GJQsqaUBKTNV-1" vertex="1">
          <mxGeometry x="1092" y="20" width="110" height="50" as="geometry" />
        </mxCell>
        <mxCell id="6y_o-Q4EUcebQSO4X-2--114" value="" style="endArrow=block;dashed=1;endFill=0;endSize=12;html=1;rounded=0;exitX=0.5;exitY=1;exitDx=0;exitDy=0;entryX=0.5;entryY=0;entryDx=0;entryDy=0;" parent="WIyWlLk6GJQsqaUBKTNV-1" source="6y_o-Q4EUcebQSO4X-2--113" target="6y_o-Q4EUcebQSO4X-2--106" edge="1">
          <mxGeometry width="160" relative="1" as="geometry">
            <mxPoint x="1122" y="346" as="sourcePoint" />
            <mxPoint x="1122" y="280" as="targetPoint" />
            <Array as="points" />
          </mxGeometry>
        </mxCell>
        <mxCell id="6y_o-Q4EUcebQSO4X-2--115" value="CarView" style="swimlane;fontStyle=1;align=center;verticalAlign=top;childLayout=stackLayout;horizontal=1;startSize=30;horizontalStack=0;resizeParent=1;resizeLast=0;collapsible=1;marginBottom=0;rounded=0;shadow=0;strokeWidth=1;" parent="WIyWlLk6GJQsqaUBKTNV-1" vertex="1">
          <mxGeometry x="1492" y="20" width="160" height="590" as="geometry">
            <mxRectangle x="230" y="140" width="160" height="26" as="alternateBounds" />
          </mxGeometry>
        </mxCell>
        <mxCell id="6y_o-Q4EUcebQSO4X-2--116" value="+ X : int" style="text;align=left;verticalAlign=top;spacingLeft=4;spacingRight=4;overflow=hidden;rotatable=0;points=[[0,0.5],[1,0.5]];portConstraint=eastwest;fontStyle=4" parent="6y_o-Q4EUcebQSO4X-2--115" vertex="1">
          <mxGeometry y="30" width="160" height="26" as="geometry" />
        </mxCell>
        <mxCell id="6y_o-Q4EUcebQSO4X-2--117" value="- Y : int" style="text;align=left;verticalAlign=top;spacingLeft=4;spacingRight=4;overflow=hidden;rotatable=0;points=[[0,0.5],[1,0.5]];portConstraint=eastwest;rounded=0;shadow=0;html=0;fontStyle=4" parent="6y_o-Q4EUcebQSO4X-2--115" vertex="1">
          <mxGeometry y="56" width="160" height="26" as="geometry" />
        </mxCell>
        <mxCell id="6y_o-Q4EUcebQSO4X-2--118" value="~ carC :Â  CarController" style="text;align=left;verticalAlign=top;spacingLeft=4;spacingRight=4;overflow=hidden;rotatable=0;points=[[0,0.5],[1,0.5]];portConstraint=eastwest;rounded=0;shadow=0;html=0;" parent="6y_o-Q4EUcebQSO4X-2--115" vertex="1">
          <mxGeometry y="82" width="160" height="26" as="geometry" />
        </mxCell>
        <mxCell id="6y_o-Q4EUcebQSO4X-2--119" value="~ drawPanel : DrawPanel" style="text;align=left;verticalAlign=top;spacingLeft=4;spacingRight=4;overflow=hidden;rotatable=0;points=[[0,0.5],[1,0.5]];portConstraint=eastwest;rounded=0;shadow=0;html=0;" parent="6y_o-Q4EUcebQSO4X-2--115" vertex="1">
          <mxGeometry y="108" width="160" height="26" as="geometry" />
        </mxCell>
        <mxCell id="6y_o-Q4EUcebQSO4X-2--120" value="~ controlPanel : JPanel" style="text;align=left;verticalAlign=top;spacingLeft=4;spacingRight=4;overflow=hidden;rotatable=0;points=[[0,0.5],[1,0.5]];portConstraint=eastwest;rounded=0;shadow=0;html=0;fontStyle=0" parent="6y_o-Q4EUcebQSO4X-2--115" vertex="1">
          <mxGeometry y="134" width="160" height="26" as="geometry" />
        </mxCell>
        <mxCell id="6y_o-Q4EUcebQSO4X-2--122" value="~ gasPanel : Jpanel" style="text;align=left;verticalAlign=top;spacingLeft=4;spacingRight=4;overflow=hidden;rotatable=0;points=[[0,0.5],[1,0.5]];portConstraint=eastwest;rounded=0;shadow=0;html=0;fontStyle=0" parent="6y_o-Q4EUcebQSO4X-2--115" vertex="1">
          <mxGeometry y="160" width="160" height="26" as="geometry" />
        </mxCell>
        <mxCell id="6y_o-Q4EUcebQSO4X-2--123" value="~ gasSpinner : JSpinner" style="text;align=left;verticalAlign=top;spacingLeft=4;spacingRight=4;overflow=hidden;rotatable=0;points=[[0,0.5],[1,0.5]];portConstraint=eastwest;rounded=0;shadow=0;html=0;fontStyle=0" parent="6y_o-Q4EUcebQSO4X-2--115" vertex="1">
          <mxGeometry y="186" width="160" height="26" as="geometry" />
        </mxCell>
        <mxCell id="6y_o-Q4EUcebQSO4X-2--124" value="~ gasAmount : int" style="text;align=left;verticalAlign=top;spacingLeft=4;spacingRight=4;overflow=hidden;rotatable=0;points=[[0,0.5],[1,0.5]];portConstraint=eastwest;rounded=0;shadow=0;html=0;fontStyle=0" parent="6y_o-Q4EUcebQSO4X-2--115" vertex="1">
          <mxGeometry y="212" width="160" height="26" as="geometry" />
        </mxCell>
        <mxCell id="6y_o-Q4EUcebQSO4X-2--125" value="~ brakeAmount : int" style="text;align=left;verticalAlign=top;spacingLeft=4;spacingRight=4;overflow=hidden;rotatable=0;points=[[0,0.5],[1,0.5]];portConstraint=eastwest;rounded=0;shadow=0;html=0;fontStyle=0" parent="6y_o-Q4EUcebQSO4X-2--115" vertex="1">
          <mxGeometry y="238" width="160" height="26" as="geometry" />
        </mxCell>
        <mxCell id="6y_o-Q4EUcebQSO4X-2--126" value="~ gasLabel: JLabel" style="text;align=left;verticalAlign=top;spacingLeft=4;spacingRight=4;overflow=hidden;rotatable=0;points=[[0,0.5],[1,0.5]];portConstraint=eastwest;rounded=0;shadow=0;html=0;fontStyle=0" parent="6y_o-Q4EUcebQSO4X-2--115" vertex="1">
          <mxGeometry y="264" width="160" height="26" as="geometry" />
        </mxCell>
        <mxCell id="6y_o-Q4EUcebQSO4X-2--127" value="~ gasButton : JButton" style="text;align=left;verticalAlign=top;spacingLeft=4;spacingRight=4;overflow=hidden;rotatable=0;points=[[0,0.5],[1,0.5]];portConstraint=eastwest;rounded=0;shadow=0;html=0;fontStyle=0" parent="6y_o-Q4EUcebQSO4X-2--115" vertex="1">
          <mxGeometry y="290" width="160" height="26" as="geometry" />
        </mxCell>
        <mxCell id="6y_o-Q4EUcebQSO4X-2--128" value="~ brakeButton: JButton" style="text;align=left;verticalAlign=top;spacingLeft=4;spacingRight=4;overflow=hidden;rotatable=0;points=[[0,0.5],[1,0.5]];portConstraint=eastwest;rounded=0;shadow=0;html=0;fontStyle=0" parent="6y_o-Q4EUcebQSO4X-2--115" vertex="1">
          <mxGeometry y="316" width="160" height="26" as="geometry" />
        </mxCell>
        <mxCell id="6y_o-Q4EUcebQSO4X-2--129" value="~ turboOnButton : JButton" style="text;align=left;verticalAlign=top;spacingLeft=4;spacingRight=4;overflow=hidden;rotatable=0;points=[[0,0.5],[1,0.5]];portConstraint=eastwest;rounded=0;shadow=0;html=0;fontStyle=0" parent="6y_o-Q4EUcebQSO4X-2--115" vertex="1">
          <mxGeometry y="342" width="160" height="26" as="geometry" />
        </mxCell>
        <mxCell id="6y_o-Q4EUcebQSO4X-2--130" value="~ turboOffButton: JButton" style="text;align=left;verticalAlign=top;spacingLeft=4;spacingRight=4;overflow=hidden;rotatable=0;points=[[0,0.5],[1,0.5]];portConstraint=eastwest;rounded=0;shadow=0;html=0;fontStyle=0" parent="6y_o-Q4EUcebQSO4X-2--115" vertex="1">
          <mxGeometry y="368" width="160" height="26" as="geometry" />
        </mxCell>
        <mxCell id="6y_o-Q4EUcebQSO4X-2--131" value="~ liftBedButton : JButton" style="text;align=left;verticalAlign=top;spacingLeft=4;spacingRight=4;overflow=hidden;rotatable=0;points=[[0,0.5],[1,0.5]];portConstraint=eastwest;rounded=0;shadow=0;html=0;fontStyle=0" parent="6y_o-Q4EUcebQSO4X-2--115" vertex="1">
          <mxGeometry y="394" width="160" height="26" as="geometry" />
        </mxCell>
        <mxCell id="6y_o-Q4EUcebQSO4X-2--132" value="~ lowerBedButton : JButton" style="text;align=left;verticalAlign=top;spacingLeft=4;spacingRight=4;overflow=hidden;rotatable=0;points=[[0,0.5],[1,0.5]];portConstraint=eastwest;rounded=0;shadow=0;html=0;fontStyle=0" parent="6y_o-Q4EUcebQSO4X-2--115" vertex="1">
          <mxGeometry y="420" width="160" height="26" as="geometry" />
        </mxCell>
        <mxCell id="6y_o-Q4EUcebQSO4X-2--133" value="~ startButton : JButton" style="text;align=left;verticalAlign=top;spacingLeft=4;spacingRight=4;overflow=hidden;rotatable=0;points=[[0,0.5],[1,0.5]];portConstraint=eastwest;rounded=0;shadow=0;html=0;fontStyle=0" parent="6y_o-Q4EUcebQSO4X-2--115" vertex="1">
          <mxGeometry y="446" width="160" height="26" as="geometry" />
        </mxCell>
        <mxCell id="6y_o-Q4EUcebQSO4X-2--134" value="~ stopButton : JButton" style="text;align=left;verticalAlign=top;spacingLeft=4;spacingRight=4;overflow=hidden;rotatable=0;points=[[0,0.5],[1,0.5]];portConstraint=eastwest;rounded=0;shadow=0;html=0;fontStyle=0" parent="6y_o-Q4EUcebQSO4X-2--115" vertex="1">
          <mxGeometry y="472" width="160" height="26" as="geometry" />
        </mxCell>
        <mxCell id="6y_o-Q4EUcebQSO4X-2--121" value="" style="line;html=1;strokeWidth=1;align=left;verticalAlign=middle;spacingTop=-1;spacingLeft=3;spacingRight=3;rotatable=0;labelPosition=right;points=[];portConstraint=eastwest;" parent="6y_o-Q4EUcebQSO4X-2--115" vertex="1">
          <mxGeometry y="498" width="160" height="8" as="geometry" />
        </mxCell>
        <mxCell id="6y_o-Q4EUcebQSO4X-2--135" value="- initComponents() : void" style="text;align=left;verticalAlign=top;spacingLeft=4;spacingRight=4;overflow=hidden;rotatable=0;points=[[0,0.5],[1,0.5]];portConstraint=eastwest;rounded=0;shadow=0;html=0;fontStyle=0" parent="6y_o-Q4EUcebQSO4X-2--115" vertex="1">
          <mxGeometry y="506" width="160" height="26" as="geometry" />
        </mxCell>
        <mxCell id="6y_o-Q4EUcebQSO4X-2--136" value="+ stateChanged() : void" style="text;align=left;verticalAlign=top;spacingLeft=4;spacingRight=4;overflow=hidden;rotatable=0;points=[[0,0.5],[1,0.5]];portConstraint=eastwest;rounded=0;shadow=0;html=0;fontStyle=0" parent="6y_o-Q4EUcebQSO4X-2--115" vertex="1">
          <mxGeometry y="532" width="160" height="26" as="geometry" />
        </mxCell>
        <mxCell id="6y_o-Q4EUcebQSO4X-2--137" value="+ actionPerformed() : void" style="text;align=left;verticalAlign=top;spacingLeft=4;spacingRight=4;overflow=hidden;rotatable=0;points=[[0,0.5],[1,0.5]];portConstraint=eastwest;rounded=0;shadow=0;html=0;fontStyle=0" parent="6y_o-Q4EUcebQSO4X-2--115" vertex="1">
          <mxGeometry y="558" width="160" height="26" as="geometry" />
        </mxCell>
        <mxCell id="6y_o-Q4EUcebQSO4X-2--138" value="DrawPanel" style="swimlane;fontStyle=1;align=center;verticalAlign=top;childLayout=stackLayout;horizontal=1;startSize=30;horizontalStack=0;resizeParent=1;resizeLast=0;collapsible=1;marginBottom=0;rounded=0;shadow=0;strokeWidth=1;" parent="WIyWlLk6GJQsqaUBKTNV-1" vertex="1">
          <mxGeometry x="1692" y="20" width="230" height="340" as="geometry">
            <mxRectangle x="230" y="140" width="160" height="26" as="alternateBounds" />
          </mxGeometry>
        </mxCell>
        <mxCell id="6y_o-Q4EUcebQSO4X-2--139" value="~ volvoImage : BufferedImage" style="text;align=left;verticalAlign=top;spacingLeft=4;spacingRight=4;overflow=hidden;rotatable=0;points=[[0,0.5],[1,0.5]];portConstraint=eastwest;fontStyle=0" parent="6y_o-Q4EUcebQSO4X-2--138" vertex="1">
          <mxGeometry y="30" width="230" height="26" as="geometry" />
        </mxCell>
        <mxCell id="6y_o-Q4EUcebQSO4X-2--140" value="~ volvoPoint : Point" style="text;align=left;verticalAlign=top;spacingLeft=4;spacingRight=4;overflow=hidden;rotatable=0;points=[[0,0.5],[1,0.5]];portConstraint=eastwest;rounded=0;shadow=0;html=0;fontStyle=0" parent="6y_o-Q4EUcebQSO4X-2--138" vertex="1">
          <mxGeometry y="56" width="230" height="26" as="geometry" />
        </mxCell>
        <mxCell id="6y_o-Q4EUcebQSO4X-2--141" value="~ saabImage : BufferedImage" style="text;align=left;verticalAlign=top;spacingLeft=4;spacingRight=4;overflow=hidden;rotatable=0;points=[[0,0.5],[1,0.5]];portConstraint=eastwest;rounded=0;shadow=0;html=0;" parent="6y_o-Q4EUcebQSO4X-2--138" vertex="1">
          <mxGeometry y="82" width="230" height="26" as="geometry" />
        </mxCell>
        <mxCell id="6y_o-Q4EUcebQSO4X-2--142" value="~ saabPoint : Point" style="text;align=left;verticalAlign=top;spacingLeft=4;spacingRight=4;overflow=hidden;rotatable=0;points=[[0,0.5],[1,0.5]];portConstraint=eastwest;rounded=0;shadow=0;html=0;" parent="6y_o-Q4EUcebQSO4X-2--138" vertex="1">
          <mxGeometry y="108" width="230" height="26" as="geometry" />
        </mxCell>
        <mxCell id="6y_o-Q4EUcebQSO4X-2--143" value="~ scaniaImage : BufferedImage" style="text;align=left;verticalAlign=top;spacingLeft=4;spacingRight=4;overflow=hidden;rotatable=0;points=[[0,0.5],[1,0.5]];portConstraint=eastwest;rounded=0;shadow=0;html=0;fontStyle=0" parent="6y_o-Q4EUcebQSO4X-2--138" vertex="1">
          <mxGeometry y="134" width="230" height="26" as="geometry" />
        </mxCell>
        <mxCell id="6y_o-Q4EUcebQSO4X-2--145" value="~ scaniaPoint : Point" style="text;align=left;verticalAlign=top;spacingLeft=4;spacingRight=4;overflow=hidden;rotatable=0;points=[[0,0.5],[1,0.5]];portConstraint=eastwest;rounded=0;shadow=0;html=0;fontStyle=0" parent="6y_o-Q4EUcebQSO4X-2--138" vertex="1">
          <mxGeometry y="160" width="230" height="26" as="geometry" />
        </mxCell>
        <mxCell id="6y_o-Q4EUcebQSO4X-2--146" value="~ volvoWorkshopImage : BufferedImage" style="text;align=left;verticalAlign=top;spacingLeft=4;spacingRight=4;overflow=hidden;rotatable=0;points=[[0,0.5],[1,0.5]];portConstraint=eastwest;rounded=0;shadow=0;html=0;fontStyle=0" parent="6y_o-Q4EUcebQSO4X-2--138" vertex="1">
          <mxGeometry y="186" width="230" height="26" as="geometry" />
        </mxCell>
        <mxCell id="6y_o-Q4EUcebQSO4X-2--147" value="~ volvoWorkshopImage : Point" style="text;align=left;verticalAlign=top;spacingLeft=4;spacingRight=4;overflow=hidden;rotatable=0;points=[[0,0.5],[1,0.5]];portConstraint=eastwest;rounded=0;shadow=0;html=0;fontStyle=0" parent="6y_o-Q4EUcebQSO4X-2--138" vertex="1">
          <mxGeometry y="212" width="230" height="26" as="geometry" />
        </mxCell>
        <mxCell id="6y_o-Q4EUcebQSO4X-2--144" value="" style="line;html=1;strokeWidth=1;align=left;verticalAlign=middle;spacingTop=-1;spacingLeft=3;spacingRight=3;rotatable=0;labelPosition=right;points=[];portConstraint=eastwest;" parent="6y_o-Q4EUcebQSO4X-2--138" vertex="1">
          <mxGeometry y="238" width="230" height="8" as="geometry" />
        </mxCell>
        <mxCell id="6y_o-Q4EUcebQSO4X-2--148" value="~ moveit() : void" style="text;align=left;verticalAlign=top;spacingLeft=4;spacingRight=4;overflow=hidden;rotatable=0;points=[[0,0.5],[1,0.5]];portConstraint=eastwest;rounded=0;shadow=0;html=0;fontStyle=0" parent="6y_o-Q4EUcebQSO4X-2--138" vertex="1">
          <mxGeometry y="246" width="230" height="26" as="geometry" />
        </mxCell>
        <mxCell id="6y_o-Q4EUcebQSO4X-2--149" value="+ DrawPanel : void" style="text;align=left;verticalAlign=top;spacingLeft=4;spacingRight=4;overflow=hidden;rotatable=0;points=[[0,0.5],[1,0.5]];portConstraint=eastwest;rounded=0;shadow=0;html=0;fontStyle=0" parent="6y_o-Q4EUcebQSO4X-2--138" vertex="1">
          <mxGeometry y="272" width="230" height="26" as="geometry" />
        </mxCell>
        <mxCell id="6y_o-Q4EUcebQSO4X-2--153" value="# paintComponent : void" style="text;align=left;verticalAlign=top;spacingLeft=4;spacingRight=4;overflow=hidden;rotatable=0;points=[[0,0.5],[1,0.5]];portConstraint=eastwest;rounded=0;shadow=0;html=0;fontStyle=0" parent="6y_o-Q4EUcebQSO4X-2--138" vertex="1">
          <mxGeometry y="298" width="230" height="26" as="geometry" />
        </mxCell>
        <mxCell id="6y_o-Q4EUcebQSO4X-2--155" value="&lt;p style=&quot;margin:0px;margin-top:4px;text-align:center;&quot;&gt;ArrayList&lt;/p&gt;&lt;hr size=&quot;1&quot;&gt;&lt;div style=&quot;height:2px;&quot;&gt;&lt;/div&gt;" style="verticalAlign=top;align=left;overflow=fill;fontSize=12;fontFamily=Helvetica;html=1;whiteSpace=wrap;" parent="WIyWlLk6GJQsqaUBKTNV-1" vertex="1">
          <mxGeometry x="990" y="-170" width="140" height="60" as="geometry" />
        </mxCell>
        <mxCell id="6y_o-Q4EUcebQSO4X-2--160" value="&lt;p style=&quot;margin:0px;margin-top:4px;text-align:center;&quot;&gt;Stack&lt;/p&gt;&lt;hr size=&quot;1&quot;&gt;&lt;div style=&quot;height:2px;&quot;&gt;&lt;/div&gt;" style="verticalAlign=top;align=left;overflow=fill;fontSize=12;fontFamily=Helvetica;html=1;whiteSpace=wrap;" parent="WIyWlLk6GJQsqaUBKTNV-1" vertex="1">
          <mxGeometry x="795" y="-170" width="140" height="60" as="geometry" />
        </mxCell>
        <mxCell id="6y_o-Q4EUcebQSO4X-2--161" value="&lt;p style=&quot;margin:0px;margin-top:4px;text-align:center;&quot;&gt;JFrame&lt;/p&gt;&lt;hr size=&quot;1&quot;&gt;&lt;div style=&quot;height:2px;&quot;&gt;&lt;/div&gt;" style="verticalAlign=top;align=left;overflow=fill;fontSize=12;fontFamily=Helvetica;html=1;whiteSpace=wrap;" parent="WIyWlLk6GJQsqaUBKTNV-1" vertex="1">
          <mxGeometry x="1171" y="-170" width="140" height="60" as="geometry" />
        </mxCell>
        <mxCell id="6y_o-Q4EUcebQSO4X-2--162" value="&lt;p style=&quot;margin:0px;margin-top:4px;text-align:center;&quot;&gt;JButton&lt;/p&gt;&lt;hr size=&quot;1&quot;&gt;&lt;div style=&quot;height:2px;&quot;&gt;&lt;/div&gt;" style="verticalAlign=top;align=left;overflow=fill;fontSize=12;fontFamily=Helvetica;html=1;whiteSpace=wrap;" parent="WIyWlLk6GJQsqaUBKTNV-1" vertex="1">
          <mxGeometry x="1350" y="-170" width="140" height="60" as="geometry" />
        </mxCell>
        <mxCell id="6y_o-Q4EUcebQSO4X-2--163" value="&lt;p style=&quot;margin:0px;margin-top:4px;text-align:center;&quot;&gt;JLabel&lt;/p&gt;&lt;hr size=&quot;1&quot;&gt;&lt;div style=&quot;height:2px;&quot;&gt;&lt;/div&gt;" style="verticalAlign=top;align=left;overflow=fill;fontSize=12;fontFamily=Helvetica;html=1;whiteSpace=wrap;" parent="WIyWlLk6GJQsqaUBKTNV-1" vertex="1">
          <mxGeometry x="1530" y="-170" width="140" height="60" as="geometry" />
        </mxCell>
        <mxCell id="6y_o-Q4EUcebQSO4X-2--164" value="&lt;p style=&quot;margin:0px;margin-top:4px;text-align:center;&quot;&gt;JSpinner&lt;/p&gt;&lt;hr size=&quot;1&quot;&gt;&lt;div style=&quot;height:2px;&quot;&gt;&lt;/div&gt;" style="verticalAlign=top;align=left;overflow=fill;fontSize=12;fontFamily=Helvetica;html=1;whiteSpace=wrap;" parent="WIyWlLk6GJQsqaUBKTNV-1" vertex="1">
          <mxGeometry x="1700" y="-170" width="140" height="60" as="geometry" />
        </mxCell>
        <mxCell id="6y_o-Q4EUcebQSO4X-2--165" value="" style="endArrow=block;endSize=10;endFill=0;shadow=0;strokeWidth=1;rounded=0;edgeStyle=elbowEdgeStyle;elbow=vertical;exitX=0.5;exitY=0;exitDx=0;exitDy=0;entryX=0.5;entryY=1;entryDx=0;entryDy=0;" parent="WIyWlLk6GJQsqaUBKTNV-1" target="6y_o-Q4EUcebQSO4X-2--161" edge="1">
          <mxGeometry width="160" relative="1" as="geometry">
            <mxPoint x="1570" y="20" as="sourcePoint" />
            <mxPoint x="1270" y="-130" as="targetPoint" />
          </mxGeometry>
        </mxCell>
        <mxCell id="6y_o-Q4EUcebQSO4X-2--166" value="&lt;p style=&quot;margin:0px;margin-top:4px;text-align:center;&quot;&gt;Point2D&lt;/p&gt;&lt;hr size=&quot;1&quot;&gt;&lt;div style=&quot;height:2px;&quot;&gt;&lt;/div&gt;" style="verticalAlign=top;align=left;overflow=fill;fontSize=12;fontFamily=Helvetica;html=1;whiteSpace=wrap;" parent="WIyWlLk6GJQsqaUBKTNV-1" vertex="1">
          <mxGeometry x="610" y="-170" width="140" height="60" as="geometry" />
        </mxCell>
        <mxCell id="6y_o-Q4EUcebQSO4X-2--167" value="&lt;p style=&quot;margin:0px;margin-top:4px;text-align:center;&quot;&gt;Point&lt;/p&gt;&lt;hr size=&quot;1&quot;&gt;&lt;div style=&quot;height:2px;&quot;&gt;&lt;/div&gt;" style="verticalAlign=top;align=left;overflow=fill;fontSize=12;fontFamily=Helvetica;html=1;whiteSpace=wrap;" parent="WIyWlLk6GJQsqaUBKTNV-1" vertex="1">
          <mxGeometry x="430" y="-170" width="140" height="60" as="geometry" />
        </mxCell>
        <mxCell id="6y_o-Q4EUcebQSO4X-2--168" value="&lt;p style=&quot;margin:0px;margin-top:4px;text-align:center;&quot;&gt;Color&lt;/p&gt;&lt;hr size=&quot;1&quot;&gt;&lt;div style=&quot;height:2px;&quot;&gt;&lt;/div&gt;" style="verticalAlign=top;align=left;overflow=fill;fontSize=12;fontFamily=Helvetica;html=1;whiteSpace=wrap;" parent="WIyWlLk6GJQsqaUBKTNV-1" vertex="1">
          <mxGeometry x="250" y="-170" width="140" height="60" as="geometry" />
        </mxCell>
        <mxCell id="6y_o-Q4EUcebQSO4X-2--169" value="" style="endArrow=open;shadow=0;strokeWidth=1;rounded=0;endFill=1;edgeStyle=elbowEdgeStyle;elbow=vertical;exitX=0.25;exitY=0;exitDx=0;exitDy=0;entryX=0.5;entryY=1;entryDx=0;entryDy=0;" parent="WIyWlLk6GJQsqaUBKTNV-1" source="zkfFHV4jXpPFQw0GAbJ--0" target="6y_o-Q4EUcebQSO4X-2--168" edge="1">
          <mxGeometry x="0.5" y="41" relative="1" as="geometry">
            <mxPoint x="590" y="15" as="sourcePoint" />
            <mxPoint x="340" y="-90" as="targetPoint" />
            <mxPoint x="-40" y="32" as="offset" />
            <Array as="points">
              <mxPoint x="310" y="-40" />
            </Array>
          </mxGeometry>
        </mxCell>
        <mxCell id="6y_o-Q4EUcebQSO4X-2--170" value="" style="endArrow=open;shadow=0;strokeWidth=1;rounded=0;endFill=1;edgeStyle=elbowEdgeStyle;elbow=vertical;exitX=0.5;exitY=0;exitDx=0;exitDy=0;entryX=0.5;entryY=1;entryDx=0;entryDy=0;" parent="WIyWlLk6GJQsqaUBKTNV-1" source="zkfFHV4jXpPFQw0GAbJ--0" target="6y_o-Q4EUcebQSO4X-2--167" edge="1">
          <mxGeometry x="0.5" y="41" relative="1" as="geometry">
            <mxPoint x="354" y="20" as="sourcePoint" />
            <mxPoint x="414" y="-110" as="targetPoint" />
            <mxPoint x="-40" y="32" as="offset" />
            <Array as="points">
              <mxPoint x="404" y="-40" />
            </Array>
          </mxGeometry>
        </mxCell>
        <mxCell id="6y_o-Q4EUcebQSO4X-2--171" value="" style="endArrow=open;shadow=0;strokeWidth=1;rounded=0;endFill=1;edgeStyle=elbowEdgeStyle;elbow=vertical;exitX=0.75;exitY=0;exitDx=0;exitDy=0;entryX=0.5;entryY=1;entryDx=0;entryDy=0;" parent="WIyWlLk6GJQsqaUBKTNV-1" source="zkfFHV4jXpPFQw0GAbJ--0" target="6y_o-Q4EUcebQSO4X-2--166" edge="1">
          <mxGeometry x="0.5" y="41" relative="1" as="geometry">
            <mxPoint x="310" y="30" as="sourcePoint" />
            <mxPoint x="510" y="-100" as="targetPoint" />
            <mxPoint x="-40" y="32" as="offset" />
            <Array as="points">
              <mxPoint x="510" y="-40" />
            </Array>
          </mxGeometry>
        </mxCell>
        <mxCell id="6y_o-Q4EUcebQSO4X-2--172" value="&lt;p style=&quot;margin:0px;margin-top:4px;text-align:center;&quot;&gt;Timer&lt;/p&gt;&lt;hr size=&quot;1&quot;&gt;&lt;div style=&quot;height:2px;&quot;&gt;&lt;/div&gt;" style="verticalAlign=top;align=left;overflow=fill;fontSize=12;fontFamily=Helvetica;html=1;whiteSpace=wrap;" parent="WIyWlLk6GJQsqaUBKTNV-1" vertex="1">
          <mxGeometry x="1261" y="-270" width="140" height="60" as="geometry" />
        </mxCell>
        <mxCell id="6y_o-Q4EUcebQSO4X-2--173" value="" style="endArrow=open;shadow=0;strokeWidth=1;rounded=0;endFill=1;edgeStyle=elbowEdgeStyle;elbow=vertical;exitX=0.5;exitY=0;exitDx=0;exitDy=0;entryX=0.5;entryY=1;entryDx=0;entryDy=0;" parent="WIyWlLk6GJQsqaUBKTNV-1" source="6y_o-Q4EUcebQSO4X-2--79" target="6y_o-Q4EUcebQSO4X-2--172" edge="1">
          <mxGeometry x="0.5" y="41" relative="1" as="geometry">
            <mxPoint x="1600" y="20" as="sourcePoint" />
            <mxPoint x="1940" y="-110" as="targetPoint" />
            <mxPoint x="-40" y="32" as="offset" />
            <Array as="points">
              <mxPoint x="1350" y="-90" />
            </Array>
          </mxGeometry>
        </mxCell>
        <mxCell id="6y_o-Q4EUcebQSO4X-2--174" value="" style="endArrow=open;shadow=0;strokeWidth=1;rounded=0;endFill=1;edgeStyle=elbowEdgeStyle;elbow=vertical;exitX=0.75;exitY=0;exitDx=0;exitDy=0;entryX=0.25;entryY=0;entryDx=0;entryDy=0;" parent="WIyWlLk6GJQsqaUBKTNV-1" source="6y_o-Q4EUcebQSO4X-2--79" target="6y_o-Q4EUcebQSO4X-2--115" edge="1">
          <mxGeometry x="0.5" y="41" relative="1" as="geometry">
            <mxPoint x="1382" y="30" as="sourcePoint" />
            <mxPoint x="1600" y="-50" as="targetPoint" />
            <mxPoint x="-40" y="32" as="offset" />
            <Array as="points">
              <mxPoint x="1550" />
            </Array>
          </mxGeometry>
        </mxCell>
        <mxCell id="6y_o-Q4EUcebQSO4X-2--175" value="" style="endArrow=open;shadow=0;strokeWidth=1;rounded=0;endFill=1;edgeStyle=elbowEdgeStyle;elbow=vertical;exitX=0.25;exitY=0;exitDx=0;exitDy=0;entryX=0.5;entryY=1;entryDx=0;entryDy=0;" parent="WIyWlLk6GJQsqaUBKTNV-1" source="6y_o-Q4EUcebQSO4X-2--79" target="6y_o-Q4EUcebQSO4X-2--155" edge="1">
          <mxGeometry x="0.5" y="41" relative="1" as="geometry">
            <mxPoint x="1382" y="30" as="sourcePoint" />
            <mxPoint x="1950" y="-100" as="targetPoint" />
            <mxPoint x="-40" y="32" as="offset" />
            <Array as="points">
              <mxPoint x="1150" y="-30" />
            </Array>
          </mxGeometry>
        </mxCell>
        <mxCell id="6y_o-Q4EUcebQSO4X-2--176" value="" style="endArrow=open;shadow=0;strokeWidth=1;rounded=0;endFill=1;edgeStyle=elbowEdgeStyle;elbow=vertical;exitX=0.5;exitY=0;exitDx=0;exitDy=0;entryX=0.5;entryY=1;entryDx=0;entryDy=0;" parent="WIyWlLk6GJQsqaUBKTNV-1" source="zkfFHV4jXpPFQw0GAbJ--17" target="6y_o-Q4EUcebQSO4X-2--160" edge="1">
          <mxGeometry x="0.5" y="41" relative="1" as="geometry">
            <mxPoint x="590" y="120" as="sourcePoint" />
            <mxPoint x="930" y="-10" as="targetPoint" />
            <mxPoint x="-40" y="32" as="offset" />
            <Array as="points">
              <mxPoint x="760" y="60" />
            </Array>
          </mxGeometry>
        </mxCell>
        <mxCell id="6y_o-Q4EUcebQSO4X-2--177" value="" style="endArrow=open;shadow=0;strokeWidth=1;rounded=0;endFill=1;edgeStyle=elbowEdgeStyle;elbow=vertical;exitX=0.75;exitY=0;exitDx=0;exitDy=0;entryX=0.5;entryY=1;entryDx=0;entryDy=0;" parent="WIyWlLk6GJQsqaUBKTNV-1" source="6y_o-Q4EUcebQSO4X-2--115" target="6y_o-Q4EUcebQSO4X-2--162" edge="1">
          <mxGeometry x="0.5" y="41" relative="1" as="geometry">
            <mxPoint x="1708" as="sourcePoint" />
            <mxPoint x="1436" y="-130" as="targetPoint" />
            <mxPoint x="-40" y="32" as="offset" />
            <Array as="points">
              <mxPoint x="1520" y="-60" />
            </Array>
          </mxGeometry>
        </mxCell>
        <mxCell id="6y_o-Q4EUcebQSO4X-2--178" value="" style="endArrow=open;shadow=0;strokeWidth=1;rounded=0;endFill=1;edgeStyle=elbowEdgeStyle;elbow=vertical;entryX=0.5;entryY=1;entryDx=0;entryDy=0;exitX=0.75;exitY=0;exitDx=0;exitDy=0;" parent="WIyWlLk6GJQsqaUBKTNV-1" source="6y_o-Q4EUcebQSO4X-2--115" target="6y_o-Q4EUcebQSO4X-2--163" edge="1">
          <mxGeometry x="0.5" y="41" relative="1" as="geometry">
            <mxPoint x="1610" y="20" as="sourcePoint" />
            <mxPoint x="1430" y="-100" as="targetPoint" />
            <mxPoint x="-40" y="32" as="offset" />
            <Array as="points">
              <mxPoint x="1612" y="-60" />
            </Array>
          </mxGeometry>
        </mxCell>
        <mxCell id="6y_o-Q4EUcebQSO4X-2--179" value="" style="endArrow=open;shadow=0;strokeWidth=1;rounded=0;endFill=1;edgeStyle=elbowEdgeStyle;elbow=vertical;entryX=0.5;entryY=1;entryDx=0;entryDy=0;exitX=0.75;exitY=0;exitDx=0;exitDy=0;" parent="WIyWlLk6GJQsqaUBKTNV-1" source="6y_o-Q4EUcebQSO4X-2--115" target="6y_o-Q4EUcebQSO4X-2--164" edge="1">
          <mxGeometry x="0.5" y="41" relative="1" as="geometry">
            <mxPoint x="1622" y="30" as="sourcePoint" />
            <mxPoint x="1610" y="-100" as="targetPoint" />
            <mxPoint x="-40" y="32" as="offset" />
            <Array as="points">
              <mxPoint x="1690" y="-60" />
            </Array>
          </mxGeometry>
        </mxCell>
        <mxCell id="6y_o-Q4EUcebQSO4X-2--180" value="" style="endArrow=open;shadow=0;strokeWidth=1;rounded=0;endFill=1;edgeStyle=elbowEdgeStyle;elbow=vertical;exitX=0.75;exitY=0;exitDx=0;exitDy=0;entryX=0.25;entryY=0;entryDx=0;entryDy=0;" parent="WIyWlLk6GJQsqaUBKTNV-1" source="6y_o-Q4EUcebQSO4X-2--115" target="6y_o-Q4EUcebQSO4X-2--138" edge="1">
          <mxGeometry x="0.5" y="41" relative="1" as="geometry">
            <mxPoint x="1422" y="30" as="sourcePoint" />
            <mxPoint x="1542" y="30" as="targetPoint" />
            <mxPoint x="-40" y="32" as="offset" />
            <Array as="points">
              <mxPoint x="1680" />
            </Array>
          </mxGeometry>
        </mxCell>
        <mxCell id="6y_o-Q4EUcebQSO4X-2--181" value="&lt;p style=&quot;margin:0px;margin-top:4px;text-align:center;&quot;&gt;SpinnerModel&lt;/p&gt;&lt;hr size=&quot;1&quot;&gt;&lt;div style=&quot;height:2px;&quot;&gt;&lt;/div&gt;" style="verticalAlign=top;align=left;overflow=fill;fontSize=12;fontFamily=Helvetica;html=1;whiteSpace=wrap;" parent="WIyWlLk6GJQsqaUBKTNV-1" vertex="1">
          <mxGeometry x="1870" y="-170" width="140" height="60" as="geometry" />
        </mxCell>
        <mxCell id="6y_o-Q4EUcebQSO4X-2--182" value="Use" style="endArrow=open;endSize=12;dashed=1;html=1;rounded=0;exitX=1;exitY=0;exitDx=0;exitDy=0;entryX=0.5;entryY=1;entryDx=0;entryDy=0;" parent="WIyWlLk6GJQsqaUBKTNV-1" source="6y_o-Q4EUcebQSO4X-2--115" target="6y_o-Q4EUcebQSO4X-2--181" edge="1">
          <mxGeometry width="160" relative="1" as="geometry">
            <mxPoint x="1762" y="-50" as="sourcePoint" />
            <mxPoint x="1922" y="-50" as="targetPoint" />
            <Array as="points">
              <mxPoint x="1652" y="-40" />
              <mxPoint x="1940" y="-40" />
            </Array>
          </mxGeometry>
        </mxCell>
        <mxCell id="6y_o-Q4EUcebQSO4X-2--183" value="&lt;p style=&quot;margin:0px;margin-top:4px;text-align:center;&quot;&gt;Dimension&lt;/p&gt;&lt;hr size=&quot;1&quot;&gt;&lt;div style=&quot;height:2px;&quot;&gt;&lt;/div&gt;" style="verticalAlign=top;align=left;overflow=fill;fontSize=12;fontFamily=Helvetica;html=1;whiteSpace=wrap;" parent="WIyWlLk6GJQsqaUBKTNV-1" vertex="1">
          <mxGeometry x="1782" y="-250" width="140" height="60" as="geometry" />
        </mxCell>
        <mxCell id="6y_o-Q4EUcebQSO4X-2--184" value="Use" style="endArrow=open;endSize=12;dashed=1;html=1;rounded=0;exitX=1;exitY=0;exitDx=0;exitDy=0;entryX=0.5;entryY=1;entryDx=0;entryDy=0;" parent="WIyWlLk6GJQsqaUBKTNV-1" source="6y_o-Q4EUcebQSO4X-2--115" target="6y_o-Q4EUcebQSO4X-2--183" edge="1">
          <mxGeometry width="160" relative="1" as="geometry">
            <mxPoint x="1820" y="20" as="sourcePoint" />
            <mxPoint x="2090" y="-50" as="targetPoint" />
            <Array as="points">
              <mxPoint x="1652" y="-40" />
              <mxPoint x="1852" y="-40" />
            </Array>
          </mxGeometry>
        </mxCell>
        <mxCell id="6y_o-Q4EUcebQSO4X-2--185" value="&lt;p style=&quot;margin:0px;margin-top:4px;text-align:center;&quot;&gt;BufferedImage&lt;/p&gt;&lt;hr size=&quot;1&quot;&gt;&lt;div style=&quot;height:2px;&quot;&gt;&lt;/div&gt;" style="verticalAlign=top;align=left;overflow=fill;fontSize=12;fontFamily=Helvetica;html=1;whiteSpace=wrap;" parent="WIyWlLk6GJQsqaUBKTNV-1" vertex="1">
          <mxGeometry x="2038" y="-170" width="140" height="60" as="geometry" />
        </mxCell>
        <mxCell id="6y_o-Q4EUcebQSO4X-2--186" value="" style="endArrow=open;shadow=0;strokeWidth=1;rounded=0;endFill=1;edgeStyle=elbowEdgeStyle;elbow=vertical;entryX=0.5;entryY=1;entryDx=0;entryDy=0;exitX=0.75;exitY=0;exitDx=0;exitDy=0;" parent="WIyWlLk6GJQsqaUBKTNV-1" source="6y_o-Q4EUcebQSO4X-2--138" target="6y_o-Q4EUcebQSO4X-2--185" edge="1">
          <mxGeometry x="0.5" y="41" relative="1" as="geometry">
            <mxPoint x="1950" y="20" as="sourcePoint" />
            <mxPoint x="1948" y="-100" as="targetPoint" />
            <mxPoint x="-40" y="32" as="offset" />
            <Array as="points">
              <mxPoint x="1980" y="-30" />
            </Array>
          </mxGeometry>
        </mxCell>
        <mxCell id="6y_o-Q4EUcebQSO4X-2--187" value="" style="endArrow=open;shadow=0;strokeWidth=1;rounded=0;endFill=1;edgeStyle=elbowEdgeStyle;elbow=vertical;entryX=0.5;entryY=1;entryDx=0;entryDy=0;exitX=0.5;exitY=0;exitDx=0;exitDy=0;" parent="WIyWlLk6GJQsqaUBKTNV-1" source="6y_o-Q4EUcebQSO4X-2--138" target="6y_o-Q4EUcebQSO4X-2--167" edge="1">
          <mxGeometry x="0.5" y="41" relative="1" as="geometry">
            <mxPoint x="1875" y="30" as="sourcePoint" />
            <mxPoint x="2118" y="-100" as="targetPoint" />
            <mxPoint x="-40" y="32" as="offset" />
            <Array as="points">
              <mxPoint x="1800" y="-20" />
            </Array>
          </mxGeometry>
        </mxCell>
        <mxCell id="6y_o-Q4EUcebQSO4X-2--188" value="Use" style="endArrow=open;endSize=12;dashed=1;html=1;rounded=0;exitX=0.5;exitY=1;exitDx=0;exitDy=0;entryX=0.5;entryY=1.17;entryDx=0;entryDy=0;entryPerimeter=0;" parent="WIyWlLk6GJQsqaUBKTNV-1" source="6y_o-Q4EUcebQSO4X-2--79" target="6y_o-Q4EUcebQSO4X-2--38" edge="1">
          <mxGeometry width="160" relative="1" as="geometry">
            <mxPoint x="1280" y="480" as="sourcePoint" />
            <mxPoint x="690" y="1140" as="targetPoint" />
            <Array as="points">
              <mxPoint x="1372" y="1140" />
              <mxPoint x="550" y="1140" />
            </Array>
          </mxGeometry>
        </mxCell>
        <mxCell id="6y_o-Q4EUcebQSO4X-2--189" value="Use" style="endArrow=open;endSize=12;dashed=1;html=1;rounded=0;entryX=0.5;entryY=1;entryDx=0;entryDy=0;" parent="WIyWlLk6GJQsqaUBKTNV-1" target="zkfFHV4jXpPFQw0GAbJ--13" edge="1">
          <mxGeometry width="160" relative="1" as="geometry">
            <mxPoint x="1370" y="430" as="sourcePoint" />
            <mxPoint x="400" y="860" as="targetPoint" />
            <Array as="points">
              <mxPoint x="1370" y="1140" />
              <mxPoint x="405" y="1140" />
            </Array>
          </mxGeometry>
        </mxCell>
        <mxCell id="6y_o-Q4EUcebQSO4X-2--190" value="Use" style="endArrow=open;endSize=12;dashed=1;html=1;rounded=0;entryX=0.5;entryY=1;entryDx=0;entryDy=0;" parent="WIyWlLk6GJQsqaUBKTNV-1" target="zkfFHV4jXpPFQw0GAbJ--6" edge="1">
          <mxGeometry width="160" relative="1" as="geometry">
            <mxPoint x="1370" y="430" as="sourcePoint" />
            <mxPoint x="415" y="850" as="targetPoint" />
            <Array as="points">
              <mxPoint x="1370" y="1140" />
              <mxPoint x="195" y="1140" />
            </Array>
          </mxGeometry>
        </mxCell>
        <mxCell id="6y_o-Q4EUcebQSO4X-2--191" value="&lt;p style=&quot;margin:0px;margin-top:4px;text-align:center;&quot;&gt;Graphics&lt;/p&gt;&lt;hr size=&quot;1&quot;&gt;&lt;div style=&quot;height:2px;&quot;&gt;&lt;/div&gt;" style="verticalAlign=top;align=left;overflow=fill;fontSize=12;fontFamily=Helvetica;html=1;whiteSpace=wrap;" parent="WIyWlLk6GJQsqaUBKTNV-1" vertex="1">
          <mxGeometry x="1950" y="-250" width="140" height="60" as="geometry" />
        </mxCell>
        <mxCell id="6y_o-Q4EUcebQSO4X-2--192" value="Use" style="endArrow=open;endSize=12;dashed=1;html=1;rounded=0;exitX=1;exitY=0;exitDx=0;exitDy=0;entryX=0.5;entryY=1;entryDx=0;entryDy=0;" parent="WIyWlLk6GJQsqaUBKTNV-1" source="6y_o-Q4EUcebQSO4X-2--138" target="6y_o-Q4EUcebQSO4X-2--191" edge="1">
          <mxGeometry width="160" relative="1" as="geometry">
            <mxPoint x="1820" y="20" as="sourcePoint" />
            <mxPoint x="2258" y="-50" as="targetPoint" />
            <Array as="points">
              <mxPoint x="1920" y="-10" />
              <mxPoint x="2020" y="-10" />
            </Array>
          </mxGeometry>
        </mxCell>
        <mxCell id="6y_o-Q4EUcebQSO4X-2--194" value="Use" style="endArrow=open;endSize=12;dashed=1;html=1;rounded=0;exitX=1;exitY=0.25;exitDx=0;exitDy=0;entryX=0.75;entryY=1;entryDx=0;entryDy=0;" parent="WIyWlLk6GJQsqaUBKTNV-1" source="6y_o-Q4EUcebQSO4X-2--66" target="6y_o-Q4EUcebQSO4X-2--166" edge="1">
          <mxGeometry width="160" relative="1" as="geometry">
            <mxPoint x="1015" y="984" as="sourcePoint" />
            <mxPoint x="700" y="-90" as="targetPoint" />
            <Array as="points">
              <mxPoint x="1050" y="974" />
              <mxPoint x="1050" y="120" />
              <mxPoint x="715" y="120" />
            </Array>
          </mxGeometry>
        </mxCell>
        <mxCell id="6y_o-Q4EUcebQSO4X-2--195" value="Use" style="endArrow=open;endSize=12;dashed=1;html=1;rounded=0;entryX=0.75;entryY=1;entryDx=0;entryDy=0;exitX=0.5;exitY=0;exitDx=0;exitDy=0;" parent="WIyWlLk6GJQsqaUBKTNV-1" source="6y_o-Q4EUcebQSO4X-2--60" target="6y_o-Q4EUcebQSO4X-2--166" edge="1">
          <mxGeometry width="160" relative="1" as="geometry">
            <mxPoint x="1015" y="984" as="sourcePoint" />
            <mxPoint x="390" y="403" as="targetPoint" />
            <Array as="points">
              <mxPoint x="865" y="120" />
              <mxPoint x="715" y="120" />
            </Array>
          </mxGeometry>
        </mxCell>
        <mxCell id="6y_o-Q4EUcebQSO4X-2--196" value="Use" style="endArrow=open;endSize=12;dashed=1;html=1;rounded=0;exitX=1;exitY=0.5;exitDx=0;exitDy=0;entryX=0.75;entryY=1;entryDx=0;entryDy=0;" parent="WIyWlLk6GJQsqaUBKTNV-1" source="6y_o-Q4EUcebQSO4X-2--49" target="6y_o-Q4EUcebQSO4X-2--166" edge="1">
          <mxGeometry width="160" relative="1" as="geometry">
            <mxPoint x="1015" y="984" as="sourcePoint" />
            <mxPoint x="725" y="-100" as="targetPoint" />
            <Array as="points">
              <mxPoint x="1050" y="1100" />
              <mxPoint x="1050" y="120" />
              <mxPoint x="715" y="120" />
            </Array>
          </mxGeometry>
        </mxCell>
        <mxCell id="6y_o-Q4EUcebQSO4X-2--197" value="Use" style="endArrow=open;endSize=12;dashed=1;html=1;rounded=0;exitX=1;exitY=0.5;exitDx=0;exitDy=0;entryX=1;entryY=1;entryDx=0;entryDy=0;" parent="WIyWlLk6GJQsqaUBKTNV-1" source="6y_o-Q4EUcebQSO4X-2--52" target="6y_o-Q4EUcebQSO4X-2--166" edge="1">
          <mxGeometry width="160" relative="1" as="geometry">
            <mxPoint x="1015" y="984" as="sourcePoint" />
            <mxPoint x="725" y="-100" as="targetPoint" />
            <Array as="points">
              <mxPoint x="1050" y="755" />
              <mxPoint x="1050" y="110" />
              <mxPoint x="750" y="110" />
            </Array>
          </mxGeometry>
        </mxCell>
        <mxCell id="62-jqX6X6F3YJQ1G1Wmg-0" value="" style="endArrow=block;dashed=1;endFill=0;endSize=12;html=1;rounded=0;exitX=1;exitY=0;exitDx=0;exitDy=0;entryX=1;entryY=0.5;entryDx=0;entryDy=0;" edge="1" parent="WIyWlLk6GJQsqaUBKTNV-1" source="6y_o-Q4EUcebQSO4X-2--66" target="6y_o-Q4EUcebQSO4X-2--16">
          <mxGeometry width="160" relative="1" as="geometry">
            <mxPoint x="845" y="1003" as="sourcePoint" />
            <mxPoint x="560" y="330" as="targetPoint" />
            <Array as="points">
              <mxPoint x="1090" y="946" />
              <mxPoint x="1090" y="390" />
            </Array>
          </mxGeometry>
        </mxCell>
        <mxCell id="62-jqX6X6F3YJQ1G1Wmg-1" value="" style="endArrow=open;shadow=0;strokeWidth=1;rounded=0;endFill=1;edgeStyle=elbowEdgeStyle;elbow=vertical;exitX=0.25;exitY=0;exitDx=0;exitDy=0;entryX=0.75;entryY=0;entryDx=0;entryDy=0;" edge="1" parent="WIyWlLk6GJQsqaUBKTNV-1" source="6y_o-Q4EUcebQSO4X-2--115" target="6y_o-Q4EUcebQSO4X-2--79">
          <mxGeometry x="0.5" y="41" relative="1" as="geometry">
            <mxPoint x="1422" y="30" as="sourcePoint" />
            <mxPoint x="1410" y="20" as="targetPoint" />
            <mxPoint x="-40" y="32" as="offset" />
            <Array as="points">
              <mxPoint x="1470" />
            </Array>
          </mxGeometry>
        </mxCell>
      </root>
    </mxGraphModel>
  </diagram>
</mxfile>
